<?xml version="1.0" encoding="utf-8"?>
<!-- Generator: Adobe Illustrator 17.0.2, SVG Export Plug-In . SVG Version: 6.00 Build 0)  -->
<!DOCTYPE svg PUBLIC "-//W3C//DTD SVG 1.1//EN" "http://www.w3.org/Graphics/SVG/1.1/DTD/svg11.dtd">
<svg version="1.1" id="Layer_1" xmlns="http://www.w3.org/2000/svg" xmlns:xlink="http://www.w3.org/1999/xlink" x="0px" y="0px"
	 width="612px" height="792px" viewBox="0 0 612 792" enable-background="new 0 0 612 792" xml:space="preserve">
<path fill="none" stroke="#97E365" stroke-width="1.059" d="M316.576,450.715c0,30.418-24.656,55.075-55.064,55.074
	c-30.419,0-55.075-24.657-55.075-55.074"/>
<path fill="#5ECBF4" d="M348.844,327.4h-2.426c-24.269,0.844-44.4,15.241-52,36.735V283h-3.254v97.806c-0.04,0.903,0,1.812,0,2.73v0
	v0c0,29.265,19.569,50.593,47.497,54.089c3.304,0.628,6.704,0.974,10.183,0.974c30.654,0,55.593-25.6,55.593-55.6
	C404.436,352,379.498,327.4,348.844,327.4z M348.844,437.541l-2.426-0.062c-7.854-0.402-15.352-2.478-21.975-5.736
	c-0.521-0.262-1.044-0.521-1.555-0.799c-0.016-0.009-0.033-0.018-0.049-0.027c-0.727-0.397-1.443-0.811-2.15-1.24
	c-0.076-0.047-0.152-0.093-0.228-0.139c-0.41-0.251-0.81-0.518-1.212-0.779c-1.564-1.042-3.066-2.174-4.487-3.415
	c-7.49-6.544-13.906-14.791-17.483-24.637c-1.919-5.56-2.977-11.514-2.977-17.707c0-30,24.467-54.541,54.542-54.541
	c30.07,0,54.534,24.541,54.534,54.541S378.914,437.541,348.844,437.541z"/>
<path fill="#97E365" d="M261.512,453.949c1.671,0.002,3.326-0.125,4.976-0.23c23.613-1.504,42.855-14.913,49.93-36.079v8.343
	c0.377,20.776-1.124,38.176-6.246,49.389l0.983,0.289c5.812-11.264,8.578-29.679,8.199-50.594v-25.839c0-0.018,0-0.036,0-0.054l0,0
	c-0.054-31.853-23.972-55.267-54.937-56.344l0,0c-0.965-0.049-1.933-0.076-2.906-0.076c-7.507,0-14.789,1.47-21.645,4.37
	c-6.621,2.8-12.568,6.809-17.674,11.915c-5.106,5.106-9.115,11.051-11.916,17.671c-2.899,6.854-4.37,14.135-4.37,21.639
	c0,7.506,1.47,14.788,4.37,21.643c2.801,6.621,6.81,12.567,11.916,17.674c5.106,5.106,11.053,9.115,17.674,11.916
	c6.827,2.887,13.077,4.355,20.551,4.367L261.512,453.949z M311.749,419.404c-2.747,6.495-6.691,12.501-11.7,17.511
	c-5.009,5.009-10.864,8.942-17.358,11.689c-6.708,2.838-14.24,4.279-21.227,4.285c-7.347-0.006-14.474-1.447-21.184-4.285
	c-6.495-2.747-12.328-6.68-17.338-11.689c-5.009-5.009-8.942-10.842-11.689-17.337c-2.844-6.724-4.286-13.867-4.286-21.231
	c0-7.362,1.442-14.504,4.286-21.227c2.747-6.494,6.68-12.326,11.689-17.335c5.009-5.009,10.843-8.941,17.338-11.688
	c6.724-2.844,13.868-4.286,21.232-4.286c7.362,0,14.503,1.442,21.226,4.286c6.494,2.747,12.326,6.68,17.335,11.688
	s8.941,10.841,11.688,17.335c2.806,6.634,4.241,13.677,4.279,20.935C316.032,406.031,314.586,412.696,311.749,419.404z"/>
</svg>
