<?xml version="1.0" encoding="utf-8"?>
<!-- Generator: Adobe Illustrator 17.0.2, SVG Export Plug-In . SVG Version: 6.00 Build 0)  -->
<!DOCTYPE svg PUBLIC "-//W3C//DTD SVG 1.1//EN" "http://www.w3.org/Graphics/SVG/1.1/DTD/svg11.dtd">
<svg version="1.1" id="h1_1_" xmlns="http://www.w3.org/2000/svg" xmlns:xlink="http://www.w3.org/1999/xlink" x="0px" y="0px"
	 width="1790px" height="186px" viewBox="0 0 1790 186" enable-background="new 0 0 1790 186" xml:space="preserve">
<g id="CLUB">
	<g enable-background="new    ">
		<path fill="#FFFFFF" d="M111.317,113.422l51.019,2.973c-2.397,21.625-10.636,38.209-24.71,49.752
			c-14.076,11.546-31.371,17.316-51.884,17.316c-24.689,0-44.625-7.925-59.811-23.777C10.745,143.835,3.152,121.951,3.152,94.038
			c0-27.655,7.193-49.967,21.58-66.94C39.118,10.127,59.187,1.64,84.942,1.64c24.065,0,42.56,6.461,55.481,19.384
			s20.225,30.067,21.913,51.433l-52.084,2.713c0-11.802-2.331-20.331-6.994-25.587c-4.662-5.254-10.146-7.883-16.451-7.883
			c-17.583,0-26.375,17.145-26.375,51.433c0,19.212,2.285,32.265,6.86,39.156c4.573,6.894,10.989,10.338,19.249,10.338
			C101.281,142.627,109.54,132.893,111.317,113.422z"/>
		<path fill="#FFFFFF" d="M310.195,137.459v43.291H182.716V4.354h55.814v133.105H310.195z"/>
		<path fill="#FFFFFF" d="M475.773,4.354v116.822c0,22.143-6.772,38.057-20.314,47.75c-13.543,9.691-31.193,14.537-52.949,14.537
			c-22.912,0-41.317-4.652-55.215-13.956c-13.899-9.305-20.848-24.466-20.848-45.488V4.354h56.747v113.333
			c0,8.444,1.836,14.603,5.512,18.479s9.543,5.815,17.604,5.815c6.729,0,12.241-1.399,16.537-4.2
			c4.296-2.799,6.864-5.965,7.705-9.498c0.841-3.531,1.264-10.423,1.264-20.676V4.354H475.773z"/>
		<path fill="#FFFFFF" d="M505.611,180.75V4.354h92.313c19.182,0,33.168,4.697,41.96,14.086
			c8.792,9.391,13.188,20.117,13.188,32.178c0,8.787-2.554,16.735-7.659,23.842c-5.107,7.107-12.722,11.998-22.846,14.667
			c23.532,5.514,35.301,19.212,35.301,41.094c0,13.097-4.152,24.792-12.455,35.085c-8.305,10.296-26.042,15.443-53.217,15.443
			H505.611z M557.029,71.94h25.843c6.481,0,11.056-1.593,13.721-4.781c2.664-3.187,3.996-6.591,3.996-10.209
			c0-9.821-6.218-14.732-18.649-14.732h-24.91V71.94z M557.029,141.465h27.175c6.748,0,11.699-1.615,14.853-4.847
			c3.151-3.23,4.729-6.869,4.729-10.919c0-4.049-1.531-7.774-4.596-11.179c-3.063-3.402-8.681-5.104-16.851-5.104h-25.31V141.465z"
			/>
	</g>
</g>
<g id="CAFE">
	<g enable-background="new    ">
		<path fill="#0098D1" d="M722.09,113.422l51.019,2.973c-2.397,21.625-10.636,38.209-24.71,49.752
			c-14.076,11.546-31.37,17.316-51.885,17.316c-24.688,0-44.624-7.925-59.81-23.777c-15.186-15.851-22.779-37.734-22.779-65.647
			c0-27.655,7.193-49.967,21.58-66.94C649.892,10.127,669.96,1.64,695.715,1.64c24.064,0,42.56,6.461,55.48,19.384
			c12.922,12.923,20.226,30.067,21.913,51.433l-52.084,2.713c0-11.802-2.331-20.331-6.993-25.587
			c-4.663-5.254-10.147-7.883-16.451-7.883c-17.584,0-26.376,17.145-26.376,51.433c0,19.212,2.286,32.265,6.86,39.156
			c4.573,6.894,10.99,10.338,19.249,10.338C712.054,142.627,720.312,132.893,722.09,113.422z"/>
		<path fill="#0098D1" d="M890.688,180.75l-10.275-34.763h-48.711l-10.916,34.763h-45.312L831.605,4.354h59.012l57.027,176.396
			H890.688z M841.19,107.478h29.418l-14.711-51.17L841.19,107.478z"/>
		<path fill="#0098D1" d="M1078.021,114.715h-59.277v66.035h-54.349V4.354h131.477v41.999h-77.128v28.688h59.277V114.715z"/>
		<path fill="#0098D1" d="M1250.392,138.621v42.129h-136.805V4.354h136.805v40.707h-82.057v25.587h66.338v39.156h-66.338v28.817
			H1250.392z"/>
	</g>
</g>
<g id="LIVE">
	<g enable-background="new    ">
		<path fill="#FFFFFF" d="M1369.13,137.459v43.291H1241.65V4.354h55.814v133.105H1369.13z"/>
		<path fill="#FFFFFF" d="M1444.393,4.354V180.75h-55.814V4.354H1444.393z"/>
		<path fill="#FFFFFF" d="M1633.447,4.354l-56.424,176.396h-56.88l-59-176.396h58.817l28.774,96.145
			c1.963,5.687,3.703,11.288,5.221,16.8l33.602-112.945H1633.447z"/>
		<path fill="#FFFFFF" d="M1787.003,138.621v42.129h-136.805V4.354h136.805v40.707h-82.057v25.587h66.338v39.156h-66.338v28.817
			H1787.003z"/>
	</g>
</g>
</svg>
