<?xml version="1.0" encoding="utf-8"?>
<!-- Generator: Adobe Illustrator 18.1.0, SVG Export Plug-In . SVG Version: 6.00 Build 0)  -->
<svg version="1.1" id="Layer_1" xmlns="http://www.w3.org/2000/svg" xmlns:xlink="http://www.w3.org/1999/xlink" x="0px" y="0px"
	 viewBox="0 0 960 560" enable-background="new 0 0 960 560" xml:space="preserve">
<path fill="#2C3E50" d="M472.4,228.5c-2.6-3-6.1-5.5-9.4-7c-0.8-0.4-1.3-0.3,0.1,1.6c0.4,0.6,0.4,1.1,0.2,2.1
	c-0.7,2.9-1.2,4.6,1,14.2l0.9,3.6c0.9,3.9,1.7,6.1,0.5,6.4c-0.6,0.2-1-0.2-1.5-1.4c0.3-0.2,0.5-0.7,0.4-1.2c-0.1-0.6-0.6-1-1-0.9
	c-0.1-0.4-0.2-0.7-0.3-1.2c0.4-0.1,0.6-0.7,0.5-1.3c-0.1-0.6-0.6-1-1-0.9c-0.1-0.4-0.2-0.8-0.3-1.2c0.4-0.1,0.6-0.7,0.5-1.3
	c-0.1-0.6-0.6-1-1-0.9c0,0,0,0,0,0c-0.1-0.4-0.2-0.8-0.3-1.2c0,0,0,0,0,0c0.4-0.1,0.7-0.7,0.5-1.3c-0.1-0.6-0.6-1-1-0.9
	c0,0,0,0-0.1,0c-0.1-0.4-0.2-0.8-0.3-1.2c0,0,0,0,0.1,0c0.4-0.1,0.7-0.7,0.5-1.3c-0.1-0.6-0.6-1-1-0.9c0,0-0.1,0-0.1,0
	c-0.1-0.4-0.2-0.8-0.3-1.2c0,0,0.1,0,0.1,0c0.4-0.1,0.7-0.7,0.5-1.3c-0.1-0.6-0.6-1-1-0.9c0,0-0.1,0-0.1,0c-0.1-0.4-0.2-0.8-0.3-1.2
	c0,0,0.1,0,0.1,0c0.4-0.1,0.7-0.7,0.5-1.3c-0.1-0.6-0.6-1-1-0.9c0,0-0.1,0-0.1,0c-0.3-1.3-0.6-2.6-0.9-3.8c-0.6-2.3-0.5-2-1.1-4.2
	c-0.5-2.1-1.2-4.3-2.8-5.8c-0.8-0.7-1.7-1.2-2.8-1.3c-1,0-2,0.3-2.8,0.8c-0.7,0.4-1.3,1-1.9,1.7c-0.7,0.8-1.3,1.8-2.1,2.3
	c0,0,0,0,0,0c-0.8,0.4-3.6,1.5-3.6,1.5c-0.1-0.5-4.3,0.3-4.1,1.1l-2.1,1l0.2,1l2.3-0.2c0.1,0.4,4.2-0.5,4.1-1.2c0,0,4.2-1.1,5.2-1.9
	c1.7-1.3,3.1-4,5-3.5c0.4,0.1,0.8,0.4,1,0.8c0.3,0.4,0.6,0.9,0.8,1.4c0.4,1,0.7,2.1,1,3.2c1.1,4.6,1.4,6.6,2.5,11.2
	c3.4,14.4,4.2,20.6,7.1,22.4c0.9,0.6,2.2,0.6,3.2,0.4c1.8-0.4,3.4-1.6,4-3.3c0.8-2,0.4-4.1,0.1-6.2c-0.6-4.1-2.9-15.1,0.4-14.3
	C473.5,229.6,472.8,228.9,472.4,228.5z M468.6,246.3c-0.7,0.2-1.4-0.3-1.5-0.9c-0.2-0.7,0.3-1.4,0.9-1.5c0.7-0.2,1.4,0.3,1.5,0.9
	C469.7,245.4,469.3,246.1,468.6,246.3z M467.8,241.7c-0.8,0.2-1.6-0.3-1.8-1.1c-0.2-0.8,0.3-1.6,1.1-1.8c0.8-0.2,1.6,0.3,1.8,1.1
	C469.1,240.8,468.6,241.6,467.8,241.7z M466.8,237c-0.8,0.2-1.6-0.3-1.8-1.1c-0.2-0.8,0.3-1.6,1.1-1.8c0.8-0.2,1.6,0.3,1.8,1.1
	C468.1,236,467.6,236.8,466.8,237z"/>
<path fill="#2C3E50" d="M528.6,223L528.6,223L528.6,223c-0.2,0.2-0.3,0.6-0.1,0.8c1.5,2.7-2.9,10.3-5,12.4l-7.3,7.3l-0.9-0.9
	l0.6-0.6l-0.5-0.5l-1.8,1.8l0.5,0.5l0.6-0.6l0.9,0.9l-2.1,2.1l-0.9-0.9l0.6-0.6l-0.5-0.5l-1.8,1.8l0.5,0.5l0.6-0.6l0.9,0.9l-2.1,2.1
	l-0.9-0.9l0.6-0.6l-0.5-0.5l-1.8,1.8l0.5,0.5l0.6-0.6l0.9,0.9l-1.4,1.4c-0.3,0.3-0.6,0.6-0.8,1c-0.9,1.3-1.3,2.9-1.1,4.5
	c0.2,1.5,0.8,2.9,1.9,4c2.5,2.5,6.6,2.5,9.2,0l0.9-0.9l1.3,1.3c0.1,0.1,0.4,0.1,0.5,0l1.3-1.3c0.1-0.1,0.1-0.4,0-0.5l-1.3-1.3
	l0.9-0.9l1.3,1.3c0.1,0.1,0.4,0.1,0.5,0l1.3-1.3c0.1-0.1,0.1-0.4,0-0.5l-1.3-1.3l0.6-0.6l0.3-0.3l1.3,1.3c0.1,0.1,0.4,0.1,0.5,0
	l1.3-1.3c0.1-0.1,0.1-0.4,0-0.5l-1.3-1.3l1.8-1.8c2.5-2.5,2.5-6.6,0-9.2l-0.1-0.1c-0.5-0.5-1.2-1-1.8-1.3l-2,2
	c0.7,0.2,1.4,0.5,2,1.1l0.1,0.1c1.6,1.6,1.6,4.1,0,5.6l-1.8,1.8l-5.8-5.8l6.7-6.7c2.1-2.1,9.7-6.5,12.4-5c0.3,0.1,0.6,0.1,0.8-0.1
	l0,0C539.2,232.2,529.3,222.3,528.6,223z M516.2,258.6c-1.6,1.6-4.1,1.6-5.6,0c-1.6-1.6-1.6-4.3,0-5.9l0.8-0.8l5.8,5.8L516.2,258.6z
	 M518.9,255.9l-5.8-5.8l0.9-0.9l5.8,5.8L518.9,255.9z M522.5,252.3l-0.3,0.3l-0.6,0.6l-5.8-5.8l0.6-0.6l0.3-0.3L522.5,252.3z"/>
<path fill="#2C3E50" d="M487.9,236.4c-3.3,0.5-6.1,2.2-8.1,4.5c2.4-9.2,8.3-12,12.3-12.7c0.6-0.1,1.1-0.1,1.5-0.2c0,0,0.1,0,0.1,0
	c0.3-0.1,0.6-0.3,0.7-0.6l0,0l-26.2-7.8l0,0c-0.1,0.4,0,0.9,0.4,1.2c3.3,2.7,7.3,6.3,6.3,15.1c-0.4,3.2-0.6,6.5-0.3,9.7
	c0.2,3.1,0.9,6.2,2.3,9c3.1,6,8.6,9.8,15.3,8.7c7.4-1.2,12.4-8.2,11.2-15.7C502.3,240.2,495.3,235.2,487.9,236.4z M496.8,259.6
	l-0.2-1c0.4-0.2,0.7-0.7,0.6-1.2c-0.1-0.7-0.7-1.1-1.4-1c-0.7,0.1-1.1,0.7-1,1.4c0.1,0.5,0.5,0.9,0.9,1l0.2,1.3
	c-0.6,0.3-1.2,0.6-1.9,0.9l-0.3-1.9c0.4-0.2,0.7-0.7,0.6-1.2c-0.1-0.7-0.7-1.1-1.4-1c-0.7,0.1-1.1,0.7-1,1.4c0.1,0.5,0.5,0.9,0.9,1
	l0.3,2c-0.4,0.1-0.8,0.2-1.2,0.3c-0.3,0-0.5,0.1-0.8,0.1l-0.3-2c0.4-0.2,0.7-0.7,0.6-1.2c-0.1-0.7-0.7-1.1-1.4-1
	c-0.7,0.1-1.1,0.7-1,1.4c0.1,0.5,0.5,0.9,0.9,1l0.3,1.9c-0.7,0-1.4,0-2-0.1l-0.2-1.5c0.4-0.2,0.7-0.7,0.6-1.2
	c-0.1-0.7-0.7-1.1-1.4-1c-0.7,0.1-1.1,0.7-1,1.4c0.1,0.5,0.5,0.9,0.9,1l0.2,1.2c-1.1-0.2-2.1-0.6-3-1.1l-1.9-11.5
	c0-0.2,0.1-0.5,0.4-0.5l0.2,0c0.2,0,0.5,0.1,0.5,0.4l1.2,7.1c0.2,1.1,1.2,1.9,2.4,1.7c1.2-0.2,2.1-1.4,1.9-2.6l-2.1-12.4
	c0-0.2,0.1-0.5,0.4-0.5l0.6-0.1c0.2,0,0.5,0.1,0.5,0.4l2.1,12.4c0.2,1.1,1.2,1.9,2.4,1.7c1.2-0.2,2.1-1.4,1.9-2.6l-1.5-8.9
	c0-0.2,0.1-0.5,0.4-0.5l0.3,0c0.2,0,0.5,0.1,0.5,0.4l1.5,8.8c0.2,1,1.1,1.8,2.1,1.7l2.8-0.2C499.9,256.7,498.5,258.3,496.8,259.6z
	 M497.9,253c-0.1,0-0.2-0.1-0.2-0.2l-1.5-8.8c-0.2-1.2-1.4-2.1-2.6-1.9l-0.3,0c-1.2,0.2-2.1,1.4-1.9,2.6l1.5,8.9
	c0,0.2-0.1,0.5-0.4,0.5c-0.1,0-0.2-0.1-0.2-0.2l-2.1-12.4c-0.2-1.2-1.4-2.1-2.6-1.9l-0.6,0.1c-1.2,0.2-2.1,1.4-1.9,2.6l2.1,12.4
	c0,0.2-0.1,0.5-0.4,0.5c-0.1,0-0.2-0.1-0.2-0.2l-1.2-7.1c-0.2-1.2-1.4-2.1-2.6-1.9l-0.2,0c-1.2,0.2-2.1,1.4-1.9,2.6l1.6,9.7
	c-5.8-5.1-5.3-18.5,5.9-20.4c6.4-1.1,12.4,3.3,13.5,9.7c0.3,1.7,0.2,3.3-0.2,4.9L497.9,253z"/>
<path fill="#231F20" d="M552.7,259.7c-2.1-1.1-4-2.5-5.6-4.3c-23.5-27-49.7-26.3-69.7-26.3c-2.5,0-4.7,1.3-6.5,3
	c-7.6,7.4-13.1,13.3-22.7,23.8c-1.1,1.2-2.2,2.3-3.8,2.5c-7.5,1.1-15.2,2.6-24.7,5.3c-4.6,1.3-7.8,5.6-7.8,10.4V285
	c0,6,4.8,10.8,10.8,10.8h4.8c-1.5-10.3,6.5-19.5,16.8-19.5c10.3,0,18.4,9.2,16.8,19.5h55.7c-1.5-10.3,6.5-19.5,16.8-19.5
	c10.3,0,18.3,9.2,16.8,19.5c5.5-0.5,9.9-5.1,9.9-10.8v-13.1C560.3,266.7,557.3,262,552.7,259.7z M424,275.4l-1,2.1
	c-1.2,2.4-3.6,3.9-6.3,3.9h-2.4c-0.6,0-1.1-0.5-1.1-1.1v-5.7c0-0.6,0.5-1.1,1.1-1.1h8.6C423.8,273.5,424.4,274.5,424,275.4z
	 M495.1,258.6h-39.7c-0.9,0-1.4-1.1-0.8-1.8c8.1-8.8,13.2-14.2,20-20.8c1-1,1.9-1.5,2.8-1.5c5.7,0,11.6-0.1,17.7,0.5V258.6z
	 M532.4,258.6h-27.6v-22c9.5,2.3,19.3,7.2,29.5,17.4C536,255.7,534.8,258.6,532.4,258.6z M558.9,276c0,0.4-0.3,0.8-0.8,0.8
	c-2.7,0-5.1-1.5-6.3-3.9l-1-2.1c-0.4-0.9,0.2-1.9,1.2-1.9h5.9c0.6,0,1.1,0.5,1.1,1.1V276z M444.2,279c-7.9,0-14.3,6.4-14.3,14.3
	c0,7.9,6.4,14.3,14.3,14.3c7.9,0,14.3-6.4,14.3-14.3C458.5,285.4,452.1,279,444.2,279z M444.2,302.2c-4.9,0-8.9-4-8.9-8.9
	c0-4.9,4-8.9,8.9-8.9c4.9,0,8.9,4,8.9,8.9C453.1,298.2,449.1,302.2,444.2,302.2z M533.5,279c-7.9,0-14.3,6.4-14.3,14.3
	c0,7.9,6.4,14.3,14.3,14.3c7.9,0,14.3-6.4,14.3-14.3C547.8,285.4,541.4,279,533.5,279z M533.5,302.2c-4.9,0-8.9-4-8.9-8.9
	c0-4.9,4-8.9,8.9-8.9s8.9,4,8.9,8.9C542.4,298.2,538.4,302.2,533.5,302.2z"/>
<g>
	<path d="M418.4,254.8c0.2,0.4,0.7,0.7,1.2,0.6l15.2-1.8l5.5,4.5c0.7,0.6,1.8,0.5,2.4-0.2l8.7-10.6c0.6-0.7,0.5-1.8-0.2-2.4
		l-5.5-4.5l-1.2-15.2c0-0.3-0.2-0.6-0.4-0.8c-0.1-0.1-0.3-0.2-0.4-0.2c-0.5-0.1-1,0-1.3,0.4l-23.7,28.9
		C418.2,253.9,418.2,254.4,418.4,254.8z"/>
	<path d="M421.9,242.3c0,0.7,0.6,1.2,1.3,1.1c0.7,0,1.2-0.6,1.1-1.3c-0.2-2.2,0.5-4.4,1.9-6.1c1.4-1.7,3.4-2.8,5.7-3.1
		c0.7-0.1,1.1-0.7,1.1-1.4c0-0.3-0.2-0.6-0.4-0.8c-0.2-0.2-0.6-0.3-0.9-0.3c-2.9,0.3-5.4,1.7-7.3,4
		C422.6,236.7,421.7,239.5,421.9,242.3z"/>
	<path d="M416.2,243c0,0.7,0.6,1.2,1.3,1.1c0.7,0,1.2-0.6,1.1-1.3c-0.3-3.7,0.9-7.4,3.3-10.2c2.4-2.9,5.8-4.8,9.5-5.2
		c0.7-0.1,1.1-0.7,1.1-1.4c0-0.3-0.2-0.6-0.4-0.8c-0.2-0.2-0.6-0.3-0.9-0.3c-4.4,0.5-8.3,2.7-11.1,6.1
		C417.2,234.4,415.9,238.6,416.2,243z"/>
	<path d="M410.6,242.6c0,0.7,0.6,1.2,1.3,1.1c0.7,0,1.2-0.6,1.1-1.3c-0.3-4.9,1.2-9.7,4.3-13.6c3.2-3.9,7.7-6.3,12.6-6.9
		c0.7-0.1,1.1-0.7,1.1-1.4c0-0.3-0.2-0.6-0.4-0.8c-0.2-0.2-0.6-0.3-0.9-0.3c-5.6,0.7-10.6,3.4-14.2,7.8
		C412,231.6,410.3,237.1,410.6,242.6z"/>
</g>
<path fill="#414042" d="M508.3,201.3c0-0.1,0.1-0.2,0.1-0.3l0.3-0.3c0.2-0.3,0.2-0.7-0.1-0.9c-0.3-0.2-0.7-0.2-0.9,0.1l-14.8,17.6
	c-0.5-1.6-2.3-3.2-4.7-3.9c-3.2-0.9-6.3,0.2-6.9,2.3c-0.6,2.2,1.5,4.6,4.8,5.5c2.3,0.6,4.5,0.3,5.7-0.7c0,0,0.1-0.1,0.1-0.1
	c0.3-0.2,0.5-0.5,0.7-0.9l11.7-13.8c0.3,0.5,0.8,1.2,1.3,2c0.7,1,1.1,3.1,1,4.6c-0.1,1.5-0.7,3.8-1.4,5.1c-0.7,1.3-1.9,3-2.8,3.8
	c-0.8,0.8-1.4,1.5-1.3,1.5c0.1,0.1,1.9-1.3,4-3.1c2.1-1.8,4.1-4.8,4.6-6.7c0.4-1.9,0.1-4.7-0.8-6.3
	C508,205.4,507.7,202.8,508.3,201.3z"/>
<path fill="#414042" d="M492.8,193.6c0.9,0.5,2,1.7,2.6,2.5c0.6,0.8,1.2,2.1,1.4,2.9c0.2,0.7,0.4,1.3,0.5,1.3c0.1,0-0.2-1.5-0.5-3.3
	c-0.4-1.8-1.5-4-2.5-4.8c-1-0.9-2.8-1.6-4-1.5c-1.2,0-2.8-0.6-3.5-1.4c0,0-0.1-0.1-0.1-0.1l-0.1-0.3c-0.1-0.2-0.3-0.3-0.6-0.2
	c-0.2,0.1-0.3,0.3-0.2,0.6l5.7,14.5c-1.1-0.2-2.6,0.3-3.8,1.6c-1.5,1.6-1.9,3.8-0.8,4.8c1.1,1,3.2,0.6,4.8-1.1
	c1.1-1.1,1.6-2.5,1.4-3.6c0,0,0-0.1,0-0.1c-0.1-0.3-0.1-0.5-0.3-0.7l-4.5-11.4c0.4,0,1-0.1,1.6-0.1
	C490.6,192.7,492,193.1,492.8,193.6z"/>
</svg>
