<?xml version="1.0" encoding="utf-8"?>
<!-- Generator: Adobe Illustrator 18.1.0, SVG Export Plug-In . SVG Version: 6.00 Build 0)  -->
<svg version="1.1" id="Layer_1" xmlns="http://www.w3.org/2000/svg" xmlns:xlink="http://www.w3.org/1999/xlink" x="0px" y="0px"
	 viewBox="0 0 960 560" enable-background="new 0 0 960 560" xml:space="preserve">
<g>
	<path fill="#161615" d="M811.8,168.7l-0.4-0.8c0.4-2.5,1.4-7.3-0.4-13.9c-0.1-0.4-4-0.9-8.4-2.5c-7-3.5-14-6-15.5-6.5
		c-4-1.3-15.3-1.9-23.7-0.8c-6.2,0.8-16.2,6.9-21,9c-4.1,1.7-18.3,4-19.6,7.1c0,0-1.8,3.8-1.2,9.9l-0.1,0c0.3,1.6,0.7,3.7,2,4
		c0.7,0.2,2.7,0.4,6.8,0.8c0-0.2,0-0.5,0-0.7c0-5.8,4.7-10.4,10.4-10.4c5.7,0,10.4,4.7,10.4,10.4c0,0.2,0,0.5,0,0.7
		c10.5,0,20.5,0,31,0c0-0.2,0-0.5,0-0.7c0-5.8,4.7-10.4,10.4-10.4c5.7,0,10.4,4.7,10.4,10.4c0,0.2,0,0.5,0,0.7
		c3.4-0.5,6.4-1.1,8.3-2.1C812.1,172.2,811.8,169.2,811.8,168.7z M728.7,161.6c-1,0.6-5,2.8-5,2.8s0.3-2.5,0.9-3.5
		c0.3-0.5,2.9-0.9,5.6-1.2C732.4,159.5,730.1,160.7,728.7,161.6z M751.1,155.2c-4.2,0.1-3.6-1.4-1.6-2.5c4.4-2.3,10.5-5.4,14.4-5.9
		c2.3-0.3,4.9-0.5,7.7-0.5l-0.7,8.3C763.2,154.8,755.5,155.1,751.1,155.2z M773.7,154.5l0.6-8.2c4.8,0.1,9.3,0.6,11.3,1.2
		c0,0,0.8,0.3,2.2,0.7l0.7,5.7C784.9,154.1,779.5,154.3,773.7,154.5z M793.3,153.9c-0.1,0-1.2,0-3.1,0.1l-0.6-5
		c1.2,0.5,2.7,1.1,4.3,1.8C795.6,151.4,796.8,153.7,793.3,153.9z"/>
	<path fill="#161615" d="M740.8,166c-4.5,0-8.2,3.7-8.2,8.2c0,4.5,3.7,8.2,8.2,8.2c4.5,0,8.2-3.7,8.2-8.2
		C749,169.7,745.3,166,740.8,166z M740.8,177.8c-2,0-3.5-1.6-3.5-3.5c0-2,1.6-3.5,3.5-3.5c1.9,0,3.5,1.6,3.5,3.5
		C744.3,176.2,742.7,177.8,740.8,177.8z"/>
	<path fill="#161615" d="M792.5,166c-4.5,0-8.2,3.7-8.2,8.2c0,4.5,3.7,8.2,8.2,8.2c4.5,0,8.2-3.7,8.2-8.2
		C800.7,169.7,797,166,792.5,166z M792.5,177.8c-2,0-3.5-1.6-3.5-3.5c0-2,1.6-3.5,3.5-3.5c1.9,0,3.5,1.6,3.5,3.5
		C796,176.2,794.5,177.8,792.5,177.8z"/>
	<polygon fill="#161615" points="754.3,181.4 761.8,181.4 761.8,203.4 759.5,203.4 759.5,205.9 756,205.9 756,209.9 777.6,209.9 
		777.6,205.9 774.1,205.9 774.1,203.4 771.8,203.4 771.8,181.4 779.3,181.4 779.3,177.4 754.3,177.4 	"/>
</g>
<path fill="#231F20" d="M725.9,279.2c2.4,0.6,4.9,0.1,6.9-1.1l-0.8,3.5c-0.5,2-2.5,3.2-4.5,2.7l-8.6-2.1c-2-0.5-3.2-2.5-2.7-4.5
	l0.2-0.9L725.9,279.2z M668,262.4l-0.8,3.5c-0.5,2,0.7,4,2.7,4.5l8.6,2.1c2,0.5,4-0.7,4.5-2.7l0.2-0.9l-9.6-2.3
	C671.2,265.9,669.3,264.4,668,262.4z M737,267.3l-1.2,4.9c-1,4.3-5.4,6.9-9.6,5.9l-52.2-12.7c-4.3-1-6.9-5.4-5.9-9.6l1.2-4.9
	c0.8-3.5,3.1-6.4,6.2-8.2l3.8-2.1c-0.2-0.1-0.4-0.3-0.5-0.4c-0.8-0.6-1.7-0.7-4-1.3c-1.4-0.3-2.1-1.8-1.6-3.1c0.4-1,1.4-1.6,2.5-1.4
	c1.6,0.2,3.8,0.8,4.4,3c0.2,0.6,0.4,1.2,0.6,1.8l7.7-11.8c1-1.5,2.7-2.3,4.4-2.1c12.2,1.4,24,4.3,35.1,8.5c1.6,0.6,2.8,2.1,3,3.9
	l0.8,8.1c-1,0.4-2.1,0.6-3.2,0.7l-0.9-8.5c-0.1-0.5-0.4-1-0.9-1.2c-11-4.2-22.6-7-34.3-8.3c-0.5-0.1-1,0.2-1.3,0.6l-7.5,11.5
	c4.4,0.5,8.7,1.2,13.1,2c-1.2,6.2,2.6,12.6,9.1,14.2c4.5,1.1,9.3-0.5,12.2-4c3.8,0.9,14.4,2.7,21.1-3c0.9,0.4,1.4,1.3,1.3,2.3
	c-0.1,1.4-1.5,2.4-2.9,2c-2.3-0.6-3.1-0.8-4.1-0.7c-0.2,0-0.4,0.1-0.6,0.1l2.4,3.6C737.2,260.2,737.8,263.8,737,267.3z M687.3,255.8
	c0.2-2.7-5.9-8.2-10.1-7.2c-2.9,0.7-4.5,4-2.7,6.5c1.4,1.9,6.5,3.7,9.6,3.6C686.1,258.5,687.1,257.5,687.3,255.8z M731,261.6
	c-3.3-2.8-11.2-0.7-12.3,1.8c-0.7,1.5-0.2,2.9,1.6,3.9c2.7,1.5,8,2.3,10.2,1.2C733.2,267.3,733.2,263.5,731,261.6z M711.9,200.5
	c0-0.3,0.1-0.5,0.3-0.8l0.9-1c0.4-0.4,0.8-0.9,1-1.5c0.2-0.4,0.5-0.8,0.9-1c1.2-0.9,3-0.7,3.9,0.6c0.9,1.2,0.7,3-0.6,3.9
	c-0.4,0.3-0.8,0.4-1.2,0.5c-0.6,0.1-1.2,0.3-1.7,0.6l-1.2,0.6c-0.2,0.1-0.5,0.1-0.7,0.1c-2.3,3.1-2.7,6.9-0.5,10.6
	c5.5,9.4,19.4,13.5,24.2,11.7c4.8-1.8,12.4-14.2,10.3-24.9c-0.8-4.2-3.7-6.8-7.5-7.6c-0.1,0.2-0.3,0.3-0.6,0.4l-1.3,0.3
	c-0.6,0.1-1.2,0.4-1.7,0.7c-0.4,0.2-0.8,0.4-1.3,0.4c-1.5,0.1-2.9-1-3-2.5c-0.1-1.5,1-2.9,2.5-3c0.5,0,0.9,0,1.3,0.2
	c0.6,0.2,1.2,0.4,1.8,0.4l1.3,0.1c0.3,0,0.5,0.2,0.7,0.4c4.8,0.7,9,4,10.2,9.7c1.8,9-2.5,19.2-7.5,24.5c-1.7,1.8-2.3,4.4-1.6,6.8
	c1.1,3.7,1.9,8.6,0.1,12.7c-4.6,10.4-17.7,8.3-22.6,7.1c-0.6-0.1-1-0.3-1.3-0.4c-2.6,4.1-7.9,5.8-12.4,3.8c-5-2.2-7.2-8.1-5-13.1
	c2.2-5,8.1-7.2,13.1-5c4.6,2.1,6.9,7.3,5.4,12c3.3,0.9,16.4,3.7,20.5-5.4c1.3-2.9,1-6.4,0.2-9.4c-0.7-2.9-3.2-5-6.2-5.3
	c-7.2-0.6-17.3-5.4-22-13.3C707.7,209.4,708.8,204.1,711.9,200.5z M710.9,239.9c-2.8-1.2-6,0-7.3,2.8c-1.2,2.8,0,6,2.8,7.3
	c2.8,1.2,6,0,7.3-2.8C715,244.4,713.7,241.1,710.9,239.9z"/>
<path fill="#231F20" d="M774.3,92.7c2.9-0.8,10.8-1.6,15.9-2.1c-3.1-9.3-4.5-16.8-4.1-22.3c-15.7-1.1-31.4-0.5-47.1,1.8l6.2-20.6
	c0.2-0.8,0.8-1.4,1.6-1.5c16-2.4,32.2-2.4,48.2,0c0.7,0.1,1.3,0.7,1.6,1.5l4,13.3c0.4,0.9,0.7,1.9,1.1,2.9c0.6,1.8,1.2,3.7,2.2,5.2
	c2.9,4.7,6.6,10.3,9.9,14.9c1.2,1.8,2.7,3,4.7,3.8c-0.4-5-2.3-9.7-5.5-13.2l-4.3-4.7c0.3-0.1,0.6-0.3,0.8-0.4
	c1.2-0.6,2.4-0.5,5.7-0.5c1.9,0,3.4-2,3.2-4.3c-0.2-1.7-1.4-3-2.9-3.2c-2.2-0.2-5.3-0.2-6.9,3c-0.4,0.9-0.9,1.7-1.4,2.5l-6.4-21.2
	c-0.8-2.7-2.8-4.5-5.2-4.9c-16.1-2.4-32.7-2.5-49.3,0c-2.4,0.4-4.4,2.3-5.2,4.9l-6.4,21.2c-0.5-0.8-0.9-1.7-1.4-2.5
	c-1.6-3.3-4.6-3.3-6.9-3c-1.5,0.2-2.7,1.5-2.9,3.2c-0.3,2.2,1.2,4.3,3.1,4.3c3.2,0,4.4-0.1,5.7,0.5c0.3,0.1,0.5,0.3,0.8,0.4
	l-4.3,4.7c-3.6,3.9-5.6,9.3-5.6,15v8c0,7.1,4.9,12.8,10.9,12.8h33.5c0.1-1.4,0.5-2.8,1-4c-1.5-2.5-1.9-5.6-1.1-8.5
	C768.7,96.1,771.1,93.6,774.3,92.7z M745.5,97.7c-4.1,1.3-11.4,0.5-13.9-1.9c-3.2-3.1-2.1-9,1.5-11.1c5.3-3.1,15.1,3.2,15.8,7.5
	C749.2,94.9,748.2,96.9,745.5,97.7z M734.2,114h13.4v1.5c0,3.3-2.3,5.9-5.1,5.9h-12.1c-2.8,0-5.1-2.7-5.1-5.9v-5.7
	C727.7,112.4,730.8,114,734.2,114z M820.8,94v39c-0.9,0.5-1.8,1-2.8,1.6c-2.5,1.5-11.9,8.7-34,7c-4.1-0.3-7-3.5-6.1-7.7
	c0.2-1-0.2-2-1-2.5c-2.9-1.7-4.3-6-3-9.2c0.4-0.9,0.1-2-0.6-2.6c-2.5-2.2-3.3-7.2-1.4-10.4c0.5-0.8,0.4-1.9-0.1-2.6
	c-2.5-3.2-1.4-9,3.2-10.2c4-1.1,19.8-2.4,19.8-2.4c-11.7-31.9-1.9-34.2,1.2-32.1c2.2,1.5,2.6,6.9,5.2,11.1c3.2,5.2,7.1,10.9,10,15.1
	C813.8,91.6,816.9,93.1,820.8,94z M839.9,91v44.8h-14.9c-1,0-1.8-1-1.8-2.2V93.1c0-1.2,0.8-2.2,1.8-2.2H839.9z"/>
<g>
	<polygon points="857.3,205.2 863.3,194.9 861.2,191.1 853,205.2 	"/>
	<polygon points="875.6,205.3 864.3,185.7 862.1,189.4 871.2,205.3 	"/>
	<polygon points="849.8,210.7 878.7,210.7 876.6,207 872.2,207 864.3,206.9 856.3,206.9 852,206.9 	"/>
	<path d="M863.6,204.3c0,0-0.1,0.1-0.1,0.1l0,0.8l0,0.6c0,0.1,0.1,0.1,0.1,0.1l1.4,0c0.1,0,0.1-0.1,0.1-0.1l0-0.6l0-0.8
		c0-0.1-0.1-0.1-0.1-0.1L863.6,204.3z"/>
	<path d="M865.3,198.3l0.1-1.4c0-0.1,0-0.1-0.1-0.1l-0.8,0l-0.3,0l-0.8,0c-0.1,0-0.1,0-0.1,0.1l0.1,1.4l0.2,4.8
		c0,0.1,0.1,0.1,0.1,0.1l1.3,0c0.1,0,0.1-0.1,0.1-0.1L865.3,198.3z"/>
	<path d="M864.3,255.2c1.2-0.7,1.3-2.7,0.2-4.5c-1.1-1.8-2-5-2-7.1c0-2.1,0.9-5.3,2-7.2c1.1-1.8,3.4-4.2,5.1-5.2
		c1.7-1,4.8-2,6.9-2.3c2.1-0.3,5.4,0.5,7.4,1.6c1.9,1.1,4.4,3.4,5.5,5.1c1.1,1.7,2.1,3.4,2.2,3.8c0.1,0.4,1.9-0.2,4.1-1.3
		c2.1-1.2,4.3-2.8,4.9-3.6c0.5-0.8,0.3-2.7-0.4-4.1c-0.8-1.4-2.3-4.2-3.4-6.2c-1.1-2-3.3-4.7-5-6.1c-1.7-1.4-5-2.8-7.3-3.2
		c-2.4-0.4-6.1-0.5-8.3-0.3c-2.2,0.2-6.9,1.4-10.4,2.7c-1.9,0.7-5,1.1-8.2,1.3c-0.3,0-0.6,0-0.9,0c-2.5,0.1-5,0-7.2-0.2
		c-5.4-0.6-13-1.2-16.8-1.2c-3.9,0-9.2,0.7-12,1.6c-2.7,0.9-8.4,3.4-12.7,5.5c-4.3,2.1-9.8,5-12.4,6.4c-2.5,1.4-6.8,4-9.6,5.8
		c-2.7,1.8-5.7,4.6-6.6,6.1c-0.9,1.5-2.2,4.6-2.7,6.8c-0.6,2.2-1.1,5.7-1.1,7.7c0,2-1.1,4.5-2.3,5.5c-1.2,1-3.4,3.7-4.9,6
		c-1.5,2.3-1.9,7.1-0.9,10.7c1,3.6,3.3,9.1,5.3,12.3c2,3.2,4.5,6.5,5.7,7.3c1.2,0.8,2.6,1.2,3.2,0.9c0.6-0.3,2.5-1.3,4.2-2.3
		c1.7-0.9,3.8-2,4.5-2.4c0.7-0.4,1-1.4,0.5-2.2c-0.5-0.8-1.3-2.8-1.9-4.3c-0.6-1.6-1-4.7-0.8-6.9c0.2-2.2,1.8-5.7,3.6-7.6
		c1.8-2,5.5-4.1,8.1-4.7c2.6-0.6,6.6-0.2,8.8,1c2.2,1.1,4.7,3.1,5.5,4.4c0.9,1.3,2,2.9,2.5,3.7c0.5,0.8,1.6,1,2.4,0.6
		c0.8-0.4,10.8-5.7,22.3-11.8C852.7,261.4,863.1,255.9,864.3,255.2z M875.8,217.9c0.4-0.5,1.4-1.1,2-1.3c0.7-0.2,1.4-0.4,1.7-0.4
		c0.3,0,1,0,1.5,0c0.6,0,2,0.3,3.3,0.6c1.2,0.3,2.9,0.9,3.7,1.4c0.8,0.5,1.7,1,1.9,1.2c0.3,0.2,0.2,0.5-0.2,0.7
		c-0.4,0.2-2.1,0.8-3.8,1.3c-1.7,0.5-4.3,0.9-5.7,0.8c-1.4-0.1-3.1-0.9-3.9-1.8C875.7,219.6,875.4,218.4,875.8,217.9z M774.4,273.2
		c-1.2,0.6-2.3,2.6-2.5,4.3c-0.2,1.7,0.1,4.5,0.6,6.3c0.5,1.8,0.7,3.3,0.4,3.4c-0.2,0.1-0.9-0.6-1.5-1.6c-0.6-1-1.5-3.5-2.1-5.5
		c-0.6-2-1-4.7-0.8-6.1c0.1-1.4,1.5-3.3,3.1-4.1c1.6-0.9,3.3-0.7,3.9,0.3C776.1,271.2,775.6,272.5,774.4,273.2z M804.3,248.7
		c-0.5,0.2-5.4,2.7-10.9,5.5c-5.5,2.8-10.8,5.3-11.8,5.6c-1,0.3-2.1-0.6-2.4-2.1c-0.3-1.4-0.4-3.9-0.2-5.6c0.2-1.6,1.1-4.3,2-5.9
		c0.9-1.6,2.5-3.7,3.4-4.6c1-0.9,3.4-2.7,5.5-4.1c2.1-1.4,4.3-2.7,5-3c0.7-0.3,1.5-0.1,1.9,0.4c0.3,0.5,2.1,3.3,3.9,6.2
		c1.8,2.9,3.6,5.7,3.9,6.2C804.9,247.8,804.8,248.4,804.3,248.7z M811.7,243.6c-0.4-0.5-2.5-3-4.6-5.6c-2.1-2.6-4.1-5.1-4.5-5.7
		c-0.4-0.5-0.2-1.4,0.5-1.9c0.7-0.5,4.7-2.5,9-4.4c4.3-2,10.9-3.9,14.8-4.4c3.9-0.5,10-0.5,13.6,0c3.6,0.5,7.5,1.8,8.5,3
		c1,1.2-1,3.6-4.6,5.5c-3.6,1.8-11.6,5.6-17.8,8.3c-6.2,2.7-12,5.2-12.7,5.5C813,244.3,812.1,244.1,811.7,243.6z"/>
	<path d="M882.2,252.2c10.4-6.2,10.4-6.2,5.8-13.9c-3.4-5.8-10.9-7.7-16.6-4.2c-5.8,3.4-7.7,10.9-4.2,16.6
		C871.8,258.4,871.8,258.4,882.2,252.2z M877.2,245.7c0-0.2,0.2-0.3,0.3-0.3c0.2,0,0.3,0.2,0.3,0.3c0,0.2-0.2,0.3-0.3,0.3
		C877.3,246,877.2,245.8,877.2,245.7z M876.5,245.1c-0.2,0-0.3-0.1-0.4-0.2c0-0.2,0.1-0.3,0.2-0.4c0.2,0,0.3,0.1,0.4,0.2
		C876.8,244.9,876.7,245,876.5,245.1z M877.1,244.8c-0.2-0.3-0.1-0.7,0.2-0.9c0.3-0.2,0.7-0.1,0.9,0.2c0.2,0.3,0.1,0.7-0.2,0.9
		C877.6,245.2,877.2,245.1,877.1,244.8z M876.7,243.6c-0.1-0.1,0-0.3,0.1-0.4c0.1-0.1,0.3,0,0.4,0.1c0.1,0.1,0,0.3-0.1,0.4
		C877,243.8,876.8,243.8,876.7,243.6z M878.4,244.9c0.1-0.1,0.2-0.2,0.4-0.2c0.1,0.1,0.2,0.2,0.2,0.4c-0.1,0.1-0.2,0.2-0.4,0.2
		C878.4,245.2,878.4,245,878.4,244.9z M878.2,243.8c-0.1-0.1-0.1-0.3,0-0.4c0.1-0.1,0.3-0.1,0.4,0c0.1,0.1,0.1,0.3,0,0.4
		C878.5,243.9,878.3,243.9,878.2,243.8z M879.2,244.9c0.1-0.4,0.4-0.6,0.8-0.6c0.3,0,1.3,0.1,2.3,0.2c0.9,0.1,1.7,0.5,1.8,0.9
		c0.1,0.4-0.1,1-0.3,1.4c-0.3,0.3-1.2,0.3-2-0.1s-1.8-0.8-2.1-0.9C879.3,245.7,879.1,245.3,879.2,244.9z M882.1,243.2
		c-0.8,0.3-1.8,0.7-2.1,0.8c-0.3,0.1-0.8,0-0.9-0.4c-0.2-0.3-0.1-0.8,0.1-1c0.3-0.2,1-0.9,1.7-1.5c0.7-0.6,1.6-0.9,2-0.7
		s0.7,0.8,0.7,1.2C883.6,242.2,882.9,242.8,882.1,243.2z M879.8,240.4c-0.4,0.8-0.8,1.8-0.9,2.1c-0.1,0.3-0.6,0.5-0.9,0.4
		c-0.4-0.1-0.6-0.4-0.6-0.8c0-0.3,0.1-1.3,0.2-2.3c0.1-0.9,0.5-1.7,0.9-1.8c0.4-0.1,1,0.1,1.4,0.3
		C880.2,238.6,880.2,239.6,879.8,240.4z M876.3,240c0.3,0.8,0.7,1.8,0.8,2.1c0.1,0.3,0,0.8-0.4,0.9c-0.3,0.2-0.8,0.1-1-0.1
		c-0.2-0.2-0.9-1-1.5-1.7c-0.6-0.7-0.9-1.6-0.6-2c0.2-0.4,0.8-0.7,1.2-0.7C875.3,238.5,875.9,239.2,876.3,240z M875.6,243.2
		c0.3,0.1,0.5,0.6,0.4,0.9c-0.1,0.4-0.4,0.6-0.8,0.6c-0.3,0-1.3-0.1-2.3-0.2c-0.9-0.1-1.7-0.5-1.8-0.9c-0.1-0.4,0.1-1,0.3-1.4
		c0.3-0.3,1.2-0.3,2,0.1C874.3,242.6,875.2,243,875.6,243.2z M873.1,245.8c0.8-0.3,1.8-0.7,2.1-0.8c0.3-0.1,0.8,0,0.9,0.4
		c0.2,0.3,0.2,0.8-0.1,1c-0.3,0.2-1,0.9-1.7,1.5c-0.7,0.6-1.6,0.9-2,0.6c-0.4-0.2-0.7-0.8-0.7-1.2
		C871.6,246.8,872.3,246.2,873.1,245.8z M875.4,248.6c0.4-0.8,0.8-1.8,0.9-2.1c0.1-0.3,0.6-0.5,0.9-0.4c0.4,0.1,0.6,0.4,0.6,0.8
		c0,0.3-0.1,1.3-0.2,2.3c-0.1,0.9-0.5,1.7-0.9,1.8c-0.4,0.1-1-0.1-1.4-0.3C875,250.4,875,249.5,875.4,248.6z M878.9,249
		c-0.3-0.8-0.7-1.8-0.8-2.1c-0.1-0.3,0-0.8,0.4-0.9c0.3-0.2,0.8-0.1,1,0.1c0.2,0.2,0.9,1,1.5,1.7c0.6,0.7,0.9,1.6,0.7,2
		c-0.2,0.4-0.8,0.7-1.2,0.7C879.9,250.5,879.3,249.8,878.9,249z M873.3,237.3c4-2.4,9.2-1.1,11.5,2.9c1.7,2.9,1.5,6.3-0.2,8.9
		c-0.5,0.1-1,0.3-1.8,0.7c2.4-2.3,3-6.1,1.2-9.1c-2.1-3.5-6.7-4.7-10.2-2.6c-3.5,2.1-4.7,6.7-2.6,10.2c1.8,3,5.3,4.3,8.5,3.3
		c-0.7,0.5-1.1,0.9-1.5,1.3c-3.1,0.2-6.2-1.2-7.8-4.1C868,244.8,869.3,239.6,873.3,237.3z"/>
	<path d="M808.1,296.1c5.9-3.2,8.1-10.6,4.9-16.5c-3.2-5.9-10.6-8.1-16.5-4.9c-5.9,3.2-8.1,10.6-4.9,16.5
		C794.8,297.1,802.2,299.3,808.1,296.1z M798.3,278c4.1-2.2,9.2-0.7,11.4,3.4c2.2,4.1,0.7,9.2-3.4,11.4c-4.1,2.2-9.2,0.7-11.4-3.4
		C792.7,285.3,794.2,280.2,798.3,278z"/>
	<path d="M805.9,291.9c3.6-2,4.9-6.5,3-10.1c-2-3.6-6.5-4.9-10.1-3c-3.6,2-4.9,6.5-3,10.1C797.7,292.6,802.2,293.9,805.9,291.9z
		 M801.1,291.9c-0.4,0.1-1-0.1-1.4-0.4c-0.3-0.3-0.3-1.2,0.1-2c0.4-0.8,0.8-1.7,1-2c0.2-0.3,0.6-0.5,0.9-0.4
		c0.4,0.1,0.6,0.5,0.6,0.8c0,0.3-0.2,1.3-0.3,2.2C802,291,801.6,291.8,801.1,291.9z M802,284.8c0.3-0.2,0.7-0.1,0.9,0.3
		c0.2,0.3,0.1,0.7-0.3,0.9c-0.3,0.2-0.7,0.1-0.9-0.3S801.7,285,802,284.8z M801.5,284.5c-0.1-0.1,0-0.3,0.1-0.4
		c0.1-0.1,0.3,0,0.4,0.1c0.1,0.1,0,0.3-0.1,0.4C801.7,284.7,801.6,284.6,801.5,284.5z M803.5,285.7c0.1,0.1,0.2,0.2,0.1,0.4
		c-0.1,0.1-0.2,0.2-0.4,0.1c-0.1-0.1-0.2-0.2-0.1-0.4C803.2,285.6,803.4,285.6,803.5,285.7z M802.9,284.8c-0.1-0.1-0.1-0.3,0-0.4
		c0.1-0.1,0.3-0.1,0.4,0c0.1,0.1,0.1,0.3,0,0.4C803.2,284.9,803,284.9,802.9,284.8z M802.2,286.3c0.2,0,0.3,0.2,0.3,0.3
		c0,0.2-0.2,0.3-0.3,0.3c-0.2,0-0.3-0.2-0.3-0.3C801.9,286.4,802,286.3,802.2,286.3z M801.2,285.9c-0.2,0-0.3-0.1-0.3-0.2
		c0-0.2,0.1-0.3,0.2-0.3c0.2,0,0.3,0.1,0.3,0.2C801.5,285.7,801.3,285.9,801.2,285.9z M806,290.8c-0.2,0.4-0.8,0.7-1.2,0.7
		c-0.4,0-1-0.7-1.3-1.5c-0.3-0.8-0.6-1.8-0.8-2.1c-0.1-0.3,0.1-0.8,0.4-0.9c0.3-0.2,0.8-0.1,1,0.1c0.2,0.3,0.8,1.1,1.4,1.8
		C806,289.6,806.3,290.4,806,290.8z M808.8,286.6c0.1,0.4-0.1,1-0.4,1.4c-0.3,0.3-1.2,0.3-2-0.1c-0.8-0.4-1.7-0.8-2-1
		c-0.3-0.2-0.5-0.6-0.4-0.9c0.1-0.4,0.5-0.6,0.8-0.6c0.3,0,1.3,0.2,2.2,0.3C807.9,285.7,808.7,286.2,808.8,286.6z M807.7,281.7
		c0.4,0.2,0.7,0.8,0.7,1.2c0,0.4-0.7,1-1.5,1.3c-0.8,0.3-1.8,0.6-2.1,0.8c-0.3,0.1-0.7-0.1-0.9-0.4c-0.2-0.3-0.1-0.8,0.1-1
		c0.3-0.2,1.1-0.8,1.8-1.4C806.4,281.7,807.3,281.4,807.7,281.7z M803.5,279c0.4-0.1,1,0.1,1.4,0.4c0.3,0.3,0.3,1.2-0.1,2
		c-0.4,0.8-0.8,1.7-1,2c-0.2,0.3-0.6,0.5-0.9,0.4c-0.4-0.1-0.6-0.5-0.6-0.8c0-0.3,0.2-1.3,0.3-2.2C802.6,279.8,803.1,279,803.5,279z
		 M798.6,280c0.2-0.4,0.8-0.7,1.2-0.7c0.4,0,1,0.7,1.3,1.5c0.3,0.8,0.6,1.8,0.8,2.1c0.1,0.3-0.1,0.8-0.4,0.9c-0.3,0.2-0.8,0.1-1-0.1
		c-0.2-0.3-0.8-1.1-1.4-1.8C798.6,281.3,798.3,280.4,798.6,280z M795.8,284.2c-0.1-0.4,0.1-1,0.4-1.4c0.3-0.3,1.2-0.3,2,0.1
		c0.8,0.4,1.7,0.8,2,1c0.3,0.2,0.5,0.6,0.4,0.9c-0.1,0.4-0.5,0.6-0.8,0.6c-0.3,0-1.3-0.2-2.2-0.3S795.9,284.7,795.8,284.2z
		 M796.9,289.1c-0.4-0.2-0.7-0.8-0.7-1.2c0-0.4,0.7-1,1.5-1.3c0.8-0.3,1.8-0.6,2.1-0.8c0.3-0.1,0.7,0.1,0.9,0.4
		c0.2,0.3,0.1,0.8-0.1,1c-0.3,0.2-1.1,0.8-1.8,1.4C798.2,289.1,797.3,289.4,796.9,289.1z"/>
</g>
</svg>
