<?xml version="1.0" encoding="utf-8"?>
<!-- Generator: Adobe Illustrator 18.1.0, SVG Export Plug-In . SVG Version: 6.00 Build 0)  -->
<svg version="1.1" id="Layer_1" xmlns="http://www.w3.org/2000/svg" xmlns:xlink="http://www.w3.org/1999/xlink" x="0px" y="0px"
	 viewBox="0 0 864.1 560" enable-background="new 0 0 864.1 560" xml:space="preserve">
<g>
	<path d="M310.3,427.4c-1.7,1.4-3.4,2.8-3.8,3.1c-0.4,0.4-0.6,1-0.2,1.4c0.3,0.4,1.2,1.5,1.9,2.4c0.1,0.2,0.3,0.3,0.4,0.5l9.4-7.6
		c-0.1-0.2-0.3-0.3-0.4-0.5c-0.7-0.9-1.6-2-1.9-2.4c-0.3-0.4-1-0.4-1.4,0C313.7,424.7,312,426.1,310.3,427.4z"/>
	<path d="M329.1,412.1c-0.4,0.4-0.6,1-0.2,1.4c0.3,0.4,1.2,1.5,1.9,2.4c0.1,0.2,0.3,0.3,0.4,0.5l9.4-7.6c-0.1-0.2-0.3-0.3-0.4-0.5
		c-0.7-0.9-1.6-2-1.9-2.4c-0.3-0.4-1-0.4-1.4,0c-0.5,0.4-2.2,1.8-3.9,3.1C331.3,410.4,329.6,411.8,329.1,412.1z"/>
	<path d="M344.2,408.1c-1.3,1-9.6,7.8-18.5,15.1c-8.9,7.2-17.2,14-18.5,15.1c-1.3,1-1.6,2.8-0.7,3.9c0.9,1.1,4.7,5.8,8.6,10.5
		c3.8,4.7,7.7,9.4,8.6,10.5c0.9,1.1,2.7,1.2,3.9,0.1c1.3-1,9.6-7.8,18.5-15.1c8.9-7.2,17.2-14,18.5-15.1c1.3-1,1.6-2.8,0.7-3.9
		c-0.9-1.1-4.7-5.8-8.6-10.5c-3.8-4.7-7.7-9.4-8.6-10.5S345.4,407,344.2,408.1z M325.1,438.1l-7.2,5.8c-0.5,0.4-1.2,0.3-1.6-0.2
		c-0.4-0.5-0.3-1.2,0.2-1.6l7.2-5.8c0.5-0.4,1.2-0.3,1.6,0.2C325.6,437,325.5,437.7,325.1,438.1z M341.7,446.3l-5-9l-3.8,1.2
		L330,425l5,9l3.8-1.2L341.7,446.3z M347.6,419.7l-2.7,2.2l2.2,2.7c0.4,0.5,0.3,1.2-0.2,1.6c-0.5,0.4-1.2,0.3-1.6-0.2l-2.2-2.7
		l-2.7,2.2c-0.5,0.4-1.2,0.3-1.6-0.2c-0.4-0.5-0.3-1.2,0.2-1.6l2.7-2.2l-2.2-2.7c-0.4-0.5-0.3-1.2,0.2-1.6c0.5-0.4,1.2-0.3,1.6,0.2
		l2.2,2.7l2.7-2.2c0.5-0.4,1.2-0.3,1.6,0.2C348.2,418.6,348.1,419.3,347.6,419.7z"/>
</g>
<g>
	<path fill="#161615" d="M471.3,325.1c1.3-0.9,4.1-4.1,5.5-5.2c1.4-1.1,1.3-2.7,1-3c-4.2-4.5-8.3-7.2-11-10.1l-8.4-9
		c0,0-0.6-0.4-1-0.1c-0.4,0.3-6.1,5.9-6.6,6.4c-0.5,0.5,0.1,1.1,0.1,1.1l8.4,9c2.7,2.9,5,7,9.1,11.5
		C468.8,325.9,470,326,471.3,325.1z"/>
	<path fill="#161615" d="M494,283.5c-5.8-1.6-10.6-1.8-14.4-2.9l-11.8-3.4c0,0-0.8-0.2-1,0.4c-0.2,0.6-2.6,8.2-2.7,8.7
		c-0.1,0.5,0.6,0.9,0.6,0.9l11.9,3.3c3.8,1.1,8,3.5,14,5.2c0.5,0.1,1.8-0.5,2.2-2.3c0.1-0.3,0.2-0.7,0.3-1.2
		c0.3,0.1,0.5,0.3,0.8,0.5c1.1,0.7,2.5,1.8,3.4,3.5c0.9,1.7,1.6,4,1.1,7.3c-0.3,1.9-1,3.7-2,5.4c-1.4,2.2-3.3,4.2-5.3,5.8
		c-2,1.6-4,2.8-5.6,3.6c-2.1,1-4.5,2.8-6.1,5.4c-0.8,1.3-1.4,2.8-1.6,4.5c-0.2,1.7,0,3.5,0.8,5.4c0.3,0.8,1.3,1.2,2.1,0.9
		c0.8-0.3,1.2-1.3,0.9-2.1c-0.6-1.4-0.7-2.7-0.6-3.9c0.1-1.2,0.5-2.2,1.1-3.2c1.2-1.9,3.1-3.5,4.7-4.2c1.8-0.9,4-2.2,6.2-4
		c2.2-1.8,4.4-4,6-6.6c1.2-2,2.1-4.2,2.4-6.6c0.5-3.9-0.2-7-1.5-9.3c-1.3-2.3-3.1-3.8-4.5-4.7c-0.6-0.3-1.1-0.6-1.5-0.8
		c0.4-1.2,0.7-2.3,0.8-3C495.3,284.7,494.6,283.6,494,283.5z"/>
	<path fill="#161615" d="M453.4,291.7c-0.1-0.3-0.1-0.7-0.1-1.2c-1.7,0.9-3.9,1.4-6.4,0.2c-3.3-1.6-3.9-4.9-4.2-6.9
		c-0.1-0.4-0.2-1-0.2-1.2c-0.2-0.6-0.4-0.9-0.6-1.1c-0.1-0.1-0.2-0.1-0.2-0.1l-2.1-1.3c-1.1,0.9-3,1-4.5,0.1c-1.6-1-2.3-2.6-2-4.1
		l-2.2-1.3c-0.7,0.3-1.6,0.3-2.4-0.2c-0.8-0.5-1.2-1.3-1.2-2l-3.6-2.2c-3.1,4.8-0.8,7.9,0,8.7c0.8,0.8,11.5,9,14.5,11.6
		c1.5,1.3,11,11.3,11,11.3l6.6-6.3C454.4,294,453.8,292.5,453.4,291.7z"/>
	<path fill="#161615" d="M447.8,288.9c4.6,2.2,7.6-3.4,9.5-3.5c0.9,0,2.5-0.2,4.7,0.3l2.6-8.8c0,0-13.2-3.9-15-4.6
		c-3.7-1.4-15.8-7.2-16.9-7.6c-1.1-0.4-4.9-1-7.7,3.9l3.9,2.4c0.6-0.1,1.2,0,1.8,0.4c0.6,0.4,1,0.9,1.2,1.5l2.6,1.6
		c1.1-0.7,2.8-0.6,4.2,0.2c1.4,0.9,2.2,2.3,2.1,3.6l2.2,1.3c0,0,0.7,0.2,1.5,2.2C445.1,283.4,444.6,287.4,447.8,288.9z M448.1,284.7
		c0.5-0.8,1.5-1,2.3-0.6c0.8,0.5,1,1.5,0.6,2.3c-0.5,0.8-1.5,1.1-2.3,0.6C447.9,286.5,447.7,285.5,448.1,284.7z"/>
</g>
<g>
	<path d="M502.1,510.7c3.2,0,5.9-2.6,5.9-5.9v-78.4c0-3.2-2.6-5.9-5.9-5.9H393.6c-3.2,0-5.9,2.6-5.9,5.9v78.4c0,3.2,2.6,5.9,5.9,5.9
		h44.5v18H421v3.6h53.6v-3.6h-17.1v-18H502.1z M394.8,503.7v-76h106.1v76H394.8z"/>
	<path d="M517.1,420.6c-2.8,0-5,2.3-5,5v101.7c0,2.8,2.2,5,5,5h43.5c2.8,0,5-2.3,5-5V425.6c0-2.8-2.3-5-5-5H517.1z M518.3,428.2
		c0-1.4,1.1-2.5,2.5-2.5h37c1.4,0,2.5,1.1,2.5,2.5v5.6c0,1.4-1.1,2.5-2.5,2.5h-37c-1.4,0-2.5-1.1-2.5-2.5V428.2z M518.3,443.1
		c0-1.4,1.1-2.5,2.5-2.5h37c1.4,0,2.5,1.1,2.5,2.5v5.6c0,1.4-1.1,2.5-2.5,2.5h-37c-1.4,0-2.5-1.1-2.5-2.5V443.1z M546.6,487.9
		c0,1-0.8,1.8-1.8,1.8h-25.1c-1,0-1.8-0.8-1.8-1.8v-4.5c0-1,0.8-1.8,1.8-1.8h25.1c1,0,1.8,0.8,1.8,1.8V487.9z M556.6,498.9
		c-1.5,0-2.7-1.2-2.7-2.7c0-1.5,1.2-2.7,2.7-2.7c1.5,0,2.7,1.2,2.7,2.7C559.2,497.8,558,498.9,556.6,498.9z M556.6,489.7
		c-2.2,0-4.1-1.8-4.1-4.1c0-2.2,1.8-4.1,4.1-4.1s4.1,1.8,4.1,4.1C560.6,487.9,558.8,489.7,556.6,489.7z"/>
	<path d="M492.3,465.3c-1.5,0-2.7,0.7-2.7,1.6c0,0.9-0.5,1.6-1.1,1.6c-0.6,0-1.6,0-2.3,0c-0.7,0-1.3-0.7-1.3-1.6
		c0-0.9-0.8-1.6-1.8-1.6s-3.8,0-6.3,0s-5.1-1.4-5.9-3.2c-0.8-1.7-2.2-4.5-3.2-6c-1-1.6-3.2-3.6-5-4.6c-1.8-0.9-4.3-1.7-5.5-1.7
		c-1.2,0-2.3-1-2.3-2.2c0-1.2,1-2.2,2.3-2.2c1.3,0,2.3-1.2,2.3-2.7c0-1.5-1.1-2.7-2.4-2.7c-1.3,0-6.5,0-11.6,0c-5.1,0-10.3,0-11.5,0
		s-2.4,1.2-2.4,2.7c0,1.5,1,2.7,2.3,2.7c1.3,0,2.3,1,2.3,2.2c0,1.2-1,2.2-2.3,2.2c-1.3,0-2.7,1.2-3.2,2.6c-0.5,1.5-3.2,2.7-5.9,2.7
		c-2.8,0-5.7,0.9-6.4,1.9c-0.8,1-2.4,1.9-3.7,1.9c-1.2,0-2.2,0.5-2.2,1.1c0,0.6-0.6,1.1-1.3,1.1c-0.7,0-1.9,0-2.6,0
		c-0.7,0-1.3-0.5-1.3-1.1c0-0.6-1.2-1.1-2.7-1.1c-1.5,0-2.7,0.5-2.7,1.1c0,0.6,0,3.9,0,7.3c0,3.4,0,6.7,0,7.3s1.2,1.2,2.7,1.2
		c1.5,0,2.7-0.5,2.7-1.1c0-0.6,0.6-1.1,1.3-1.1c0.7,0,1.9,0,2.6,0c0.7,0,1.3,0.5,1.3,1.1c0,0.6,1,1.1,2.2,1.1c1.2,0,2.7,0.8,3.2,1.8
		c0.5,1,2,3.5,3.3,5.6c1.3,2.1,4.5,5.4,7.2,7.3c2.6,1.9,7.6,3.7,11.1,4.1c3.5,0.3,9.3,0.2,12.9-0.4c3.6-0.6,8.2-1.9,10.1-3
		c1.9-1.1,4.9-2.7,6.6-3.7c1.7-0.9,5.1-1.7,7.6-1.7c2.4,0,5.3,0,6.3,0c1,0,1.8-0.7,1.8-1.6c0-0.9,0.6-1.6,1.2-1.6c0.7,0,1.7,0,2.3,0
		c0.6,0,1.1,0.7,1.1,1.6c0,0.9,1.2,1.6,2.7,1.6c1.5,0,2.7-0.8,2.7-1.7c0-0.9,0-4.8,0-8.6c0-3.8,0-7.7,0-8.6
		C494.9,466.1,493.7,465.3,492.3,465.3z"/>
</g>
<g>
	<rect x="429.3" y="354.6" fill="#161615" width="7.1" height="6.3"/>
	<rect x="427.2" y="351.2" fill="#161615" width="11.1" height="2.3"/>
	<path fill="#161615" d="M444.1,367c0,0-0.1-0.1-0.3-0.3c-0.8-1-3.8-4.3-5.2-4.5c0,0,0,0,0,0h0H427h0c0,0,0,0,0,0
		c-1.4,0.2-4.4,3.5-5.2,4.5c-0.2,0.2-0.3,0.3-0.3,0.3c-1,1.4-3.3,2.5-5,2.5h-12.9v8.9h8.5h4.5c5.2,0,7.3,5.5,14.3,6.4c0,0,0,0,0,0
		c0.1,0,0.1,0,0.2,0c0.2,0,0.4,0,0.7,0.1c0.4,0,0.8,0.1,1.2,0.1c0,0,0,0,0,0c0,0,0,0,0,0c0.4,0,0.8,0,1.2-0.1c0.2,0,0.4,0,0.7-0.1
		c0.1,0,0.1,0,0.2,0c0,0,0,0,0,0c7-0.9,9.1-6.4,14.3-6.4h4.5h8.5v-8.9h-12.9C447.4,369.6,445.1,368.4,444.1,367z"/>
	<path fill="#161615" d="M397,350.9h-13.1c-1.9,0-3.5,1.6-3.5,3.5v39.4c0,1.9,1.6,3.5,3.5,3.5H397c1.9,0,3.5-1.6,3.5-3.5v-39.4
		C400.4,352.4,398.9,350.9,397,350.9z M395.5,366.8l1.9-1.1c0.3-0.2,0.8-0.1,1,0.3c0.2,0.3,0.1,0.8-0.3,1l-2.7,1.6V366.8z
		 M385.3,392.3l-2.7-1.6c-0.3-0.2-0.5-0.7-0.3-1c0.2-0.3,0.7-0.5,1-0.3l2,1.1V392.3z M385.3,386.2l-2.7-1.6c-0.4-0.2-0.5-0.7-0.3-1
		c0.2-0.4,0.7-0.5,1-0.3l2,1.1V386.2z M385.3,380.3l-2.7-1.6c-0.3-0.2-0.5-0.7-0.3-1c0.2-0.3,0.7-0.5,1-0.3l2,1.1V380.3z
		 M385.3,374.4l-2.7-1.6c-0.4-0.2-0.5-0.7-0.3-1c0.2-0.4,0.7-0.5,1-0.3l2,1.1V374.4z M385.3,368.5l-2.7-1.6c-0.4-0.2-0.5-0.7-0.3-1
		c0.2-0.4,0.7-0.5,1-0.3l2,1.1V368.5z M385.3,362.6l-2.7-1.6c-0.3-0.2-0.5-0.7-0.3-1c0.2-0.3,0.7-0.5,1-0.3l2,1.1V362.6z
		 M385.3,356.8l-2.7-1.6c-0.4-0.2-0.5-0.7-0.3-1c0.2-0.4,0.7-0.5,1-0.3l2,1.1V356.8z M388.8,394.6h-1.6v-41.1h1.6V394.6z
		 M393.6,394.6H392v-41.1h1.6V394.6z M398.2,390.7l-2.7,1.6v-1.7l1.9-1.1c0.3-0.2,0.8-0.1,1,0.3C398.7,390,398.6,390.5,398.2,390.7z
		 M398.2,384.6l-2.7,1.6v-1.7l1.9-1.1c0.3-0.2,0.8-0.1,1,0.3C398.7,383.9,398.6,384.4,398.2,384.6z M398.2,378.7l-2.7,1.6v-1.7
		l1.9-1.1c0.4-0.2,0.8-0.1,1,0.3C398.7,378.1,398.6,378.5,398.2,378.7z M398.2,372.8l-2.7,1.6v-1.7l1.9-1.1c0.3-0.2,0.8-0.1,1,0.3
		C398.7,372.1,398.6,372.6,398.2,372.8z M398.2,361.1l-2.7,1.6v-1.7l1.9-1.1c0.3-0.2,0.8-0.1,1,0.3
		C398.7,360.4,398.6,360.8,398.2,361.1z M398.2,355.2l-2.7,1.6V355l1.9-1.1c0.3-0.2,0.8-0.1,1,0.3
		C398.7,354.5,398.6,355,398.2,355.2z"/>
	<path fill="#161615" d="M481.7,350.9h-13.1c-1.9,0-3.5,1.6-3.5,3.5v39.4c0,1.9,1.6,3.5,3.5,3.5h13.1c1.9,0,3.5-1.6,3.5-3.5v-39.4
		C485.2,352.4,483.7,350.9,481.7,350.9z M480.3,366.8l1.9-1.1c0.3-0.2,0.8-0.1,1,0.3c0.2,0.3,0.1,0.8-0.3,1l-2.7,1.6V366.8z
		 M470.1,392.3l-2.7-1.6c-0.3-0.2-0.5-0.7-0.3-1c0.2-0.3,0.7-0.5,1-0.3l2,1.1V392.3z M470.1,386.2l-2.7-1.6c-0.4-0.2-0.5-0.7-0.3-1
		c0.2-0.4,0.7-0.5,1-0.3l2,1.1V386.2z M470.1,380.3l-2.7-1.6c-0.3-0.2-0.5-0.7-0.3-1c0.2-0.3,0.7-0.5,1-0.3l2,1.1V380.3z
		 M470.1,374.4l-2.7-1.6c-0.4-0.2-0.5-0.7-0.3-1c0.2-0.4,0.7-0.5,1-0.3l2,1.1V374.4z M470.1,368.5l-2.7-1.6c-0.4-0.2-0.5-0.7-0.3-1
		c0.2-0.4,0.7-0.5,1-0.3l2,1.1V368.5z M470.1,362.6l-2.7-1.6c-0.3-0.2-0.5-0.7-0.3-1c0.2-0.3,0.7-0.5,1-0.3l2,1.1V362.6z
		 M470.1,356.8l-2.7-1.6c-0.4-0.2-0.5-0.7-0.3-1c0.2-0.4,0.7-0.5,1-0.3l2,1.1V356.8z M473.6,394.6H472v-41.1h1.6V394.6z
		 M478.3,394.6h-1.6v-41.1h1.6V394.6z M483,390.7l-2.7,1.6v-1.7l1.9-1.1c0.3-0.2,0.8-0.1,1,0.3C483.5,390,483.3,390.5,483,390.7z
		 M483,384.6l-2.7,1.6v-1.7l1.9-1.1c0.3-0.2,0.8-0.1,1,0.3C483.5,383.9,483.3,384.4,483,384.6z M483,378.7l-2.7,1.6v-1.7l1.9-1.1
		c0.4-0.2,0.8-0.1,1,0.3C483.5,378.1,483.3,378.5,483,378.7z M483,372.8l-2.7,1.6v-1.7l1.9-1.1c0.3-0.2,0.8-0.1,1,0.3
		C483.5,372.1,483.3,372.6,483,372.8z M483,361.1l-2.7,1.6v-1.7l1.9-1.1c0.3-0.2,0.8-0.1,1,0.3C483.5,360.4,483.3,360.8,483,361.1z
		 M483,355.2l-2.7,1.6V355l1.9-1.1c0.3-0.2,0.8-0.1,1,0.3C483.5,354.5,483.3,355,483,355.2z"/>
</g>
<g>
	<path d="M538.4,367.6l10.9,12.2c0.3-0.3,0.6-0.7,0.9-1l-10.9-12.2C539,366.9,538.7,367.3,538.4,367.6z"/>
	<path d="M536.4,369.9l10.9,12.2c0.3-0.3,0.6-0.7,0.9-1l-10.9-12.2C537,369.3,536.7,369.6,536.4,369.9z"/>
	<path d="M579.1,335.4c-0.6-0.5-1.6-1.4-2.3-2c-0.6-0.5-2.4,0.5-4.1,2.4c-1,1.2-2.2,2.5-3.1,3.5l4.5,3.9c0.9-1,2.1-2.4,3.1-3.5
		C579,337.9,579.8,336,579.1,335.4z"/>
	<path d="M555.3,372.9c0.2-0.2,0.4-0.5,0.6-0.7l-5.7-5L555.3,372.9z"/>
	<path d="M573.7,344l-4.5-3.9c-0.3,0.3-0.5,0.6-0.7,0.8c-0.2,0.2-0.4,0.4-0.7,0.6l4.7,4.1c0.1-0.3,0.3-0.5,0.5-0.7
		C573.2,344.6,573.4,344.3,573.7,344z"/>
	<path d="M572.5,348c-0.2-0.4-0.3-1-0.2-1.6l-5.3-4.6c-0.6,0.2-1.1,0.2-1.6,0c-0.9-0.4-4.6,2.1-8.2,5.5c-1.7,1.6-4.1,4.1-6.6,6.7
		l5.9,5.1l5.9,5.1c2.3-2.9,4.4-5.6,5.8-7.5C571,352.8,573,348.8,572.5,348z"/>
	<path d="M540.4,365.3l10.9,12.2c0.3-0.3,0.6-0.7,0.9-1l-10.9-12.2C541,364.6,540.7,365,540.4,365.3z"/>
	<path d="M534.3,372.3l10.9,12.2c0.2-0.3,0.5-0.6,0.9-1l-10.9-12.2C534.9,371.6,534.6,372,534.3,372.3z"/>
	<path d="M542.4,363l10.9,12.2c0.3-0.3,0.6-0.7,0.9-1L543.3,362C543,362.3,542.7,362.6,542.4,363z"/>
	<path d="M532.6,374.2c-0.7,0.8-0.8,2-0.1,2.9l-1.2,1.4c-0.1,0.1-0.2,0.2-0.2,0.3c-1.1,1.6-0.9,3.8,0.5,5.1l5.2,4.5l1.4-1.7
		l-5.2-4.5c-0.6-0.5-0.7-1.3-0.3-2c0.1-0.1,0.1-0.3,0.2-0.4l1.1-1.3c1,0.8,2.1,1.9,3.1,2.7c0.3,0.3,0.7,0.6,1,0.9l-1.3,1.5l1.7,1.4
		l1.3-1.5c0.6,0.6,1.2,1.1,1.7,1.4c0.7,0.6,1.6,0.7,2.3,0.4l-10.6-12C533,373.9,532.7,374.1,532.6,374.2z"/>
	<path d="M541.6,352.9c-0.2,0.2-0.9,1.1-1.6,1.8c-0.7,0.7-0.5,1.9,0.3,2.7c0.5,0.5,2.7,2.4,5.5,4.8l5.5-6.3c-2.8-2.4-5-4.3-5.5-4.8
		c-0.8-0.7-2-0.7-2.7,0.1C542.5,351.9,541.8,352.7,541.6,352.9z"/>
	<path d="M552,356.4l-5.5,6.3c1.2,1.1,2.6,2.2,3.9,3.4c1.4,1.2,2.7,2.3,3.9,3.4l5.5-6.3c-1.2-1.1-2.6-2.2-3.9-3.4
		C554.6,358.6,553.2,357.5,552,356.4z"/>
	<path d="M555,370.2c2.8,2.4,5,4.3,5.5,4.8c0.8,0.7,2,0.7,2.7-0.1c0.7-0.7,1.4-1.6,1.6-1.8s0.9-1.1,1.6-1.8c0.7-0.7,0.5-1.9-0.3-2.7
		c-0.5-0.5-2.7-2.4-5.5-4.8L555,370.2z"/>
</g>
</svg>
