<?xml version="1.0" encoding="utf-8"?>
<!-- Generator: Adobe Illustrator 18.1.0, SVG Export Plug-In . SVG Version: 6.00 Build 0)  -->
<svg version="1.1" id="Layer_1" xmlns="http://www.w3.org/2000/svg" xmlns:xlink="http://www.w3.org/1999/xlink" x="0px" y="0px"
	 viewBox="0 0 960 560" enable-background="new 0 0 960 560" xml:space="preserve">
<path fill="#231F20" d="M409.4,255.1l3.7,10.9l-8-4c-3.2-1.6-4.5-5.5-2.9-8.7l0.7-1.5L409.4,255.1z M326.1,208.7l-2.8,5.6
	c-1.6,3.2-0.3,7.1,2.9,8.7l13.8,6.8c3.2,1.6,7.1,0.3,8.7-2.9l0.7-1.5l-15.4-7.6C330.2,215.9,327.4,212.6,326.1,208.7z M328.7,197.3
	l3.9-7.9c2.8-5.6,7.7-9.7,13.6-11.5l7.3-2.2c-0.3-0.3-0.5-0.6-0.8-0.9c-1.1-1.3-2.6-1.8-6.3-3.7c-2.2-1.1-2.9-3.9-1.5-5.9
	c1.1-1.6,3.1-2.2,4.8-1.5c2.7,1,6.1,2.7,6.4,6.9c0.1,1.1,0.2,2.2,0.3,3.3l17.6-17.1c2.2-2.1,5.4-2.9,8.3-1.9
	c20.2,7,39.2,16.5,56.5,28c2.6,1.7,3.9,4.7,3.6,7.7l-2.9,24.4c0.9-0.5,1.9-1.1,2.8-1.7c3.4-2.3,6.9-0.6,9.3,0.9
	c1.6,1,2.3,2.9,1.7,4.7c-0.8,2.4-3.5,3.5-5.7,2.4c-3.7-1.8-5-2.6-6.7-2.8c-0.3,0-0.7-0.1-1.1-0.1l2.7,7.1c2.2,5.8,1.9,12.3-0.9,17.8
	l-2.1,4.2l-6.6-19.6c-2.2-6.5-1.4-10.7-0.2-15.2c0.4,0.3,0.8,0.5,1.2,0.8l2.9-23.7c0.1-0.9-0.3-1.8-1.1-2.3
	c-17.2-11.4-35.7-20.6-55.2-27.3c-0.9-0.3-1.8-0.1-2.5,0.6l-17.1,16.7c17.2,6,33.8,13.4,49.8,22.2c-1.7,3.5-4.8,6-8.8,7l-12.1-11.2
	c-3.1-2.8-8-1.1-8.7,3c-0.5,2.6-0.4,7.6,1.2,12.2c2.6,7.8,7.2,11.2,11.2,14.2c4.1,3.1,7.6,5.7,10.1,13l4.9,14.4L335,216
	C328.1,212.6,325.3,204.2,328.7,197.3z M339.8,198.6c1.7,3.8,9.6,8.7,15,9.7c3.6,0.7,5.7-0.7,6.5-3.5c1.4-4.6-6.9-16.3-14.4-16.2
	C341.8,188.6,337.7,193.7,339.8,198.6z M440.5,298.7c-6,2-12.5-1.2-14.5-7.2l-18.5-54.9c-5.5-16.3-16.6-13.4-21.3-27.2
	c-1.2-3.6-1.4-6.8-1-10.2c0.1-0.9,1.2-1.3,1.9-0.7l13,12c0.4,0.4,0.9,0.5,1.4,0.4c8.1-1.4,14-7.8,14.7-16c0-0.5-0.2-1-0.5-1.3
	l-13-11.9c-0.7-0.6-0.4-1.8,0.5-2c11.2-2.3,22.6,4,26.3,15.1c4.6,13.5-5.8,18.6-0.4,34.5l18.5,54.9
	C449.7,290.2,446.4,296.7,440.5,298.7z M442.8,285.8c-1.1-3.3-4.7-5.1-8.1-4c-3.3,1.1-5.1,4.7-4,8.1c1.1,3.3,4.7,5.1,8.1,4
	C442.2,292.7,443.9,289.1,442.8,285.8z"/>
<path fill="#231F20" d="M394.3,119.2l-10.9-16.8l4.2-2.7c0.5-0.3,1.1-0.2,1.4,0.3l9.8,15.1c0.3,0.5,0.2,1.1-0.3,1.4L394.3,119.2z
	 M396.6,123.6l-16.3-25.2c-0.3-0.5-0.9-0.6-1.4-0.3l-5,3.3c-0.5,0.3-0.6,0.9-0.3,1.4l16.3,25.2c0.3,0.5,0.9,0.6,1.4,0.3l5-3.3
	C396.8,124.7,396.9,124.1,396.6,123.6z M346,131.4l3.4-2.2l-2.3-2.6c-1.6-1.8-1.2-4.6,0.8-5.9c1.7-1.1,3.8-0.8,5.1,0.7l3.1,3.5
	l3.4-2.2l-2.3-2.6c-1.6-1.8-1.2-4.6,0.8-5.9c1.7-1.1,3.8-0.8,5.1,0.7l3.1,3.5l3.4-2.2l-2.3-2.6c-0.8-0.9-1.1-2-0.9-3.2
	c0.2-1.1,0.8-2.1,1.8-2.8c1.7-1.1,3.8-0.8,5.1,0.7l3.1,3.5l1.9-1.2l6.5,10.1l-0.5,0.3l2.3,2.6c0.8,0.9,1.1,2,0.9,3.2
	c-0.2,1.1-0.8,2.1-1.8,2.8c-1.7,1.1-3.8,0.8-5.1-0.7l-3.1-3.5l-3.4,2.2l2.3,2.7c1.6,1.8,1.2,4.6-0.8,5.9c-1.7,1.1-3.8,0.8-5.1-0.7
	l-3.1-3.5l-3.4,2.2l2.3,2.6c1.6,1.8,1.2,4.6-0.8,5.9c-1.7,1.1-3.8,0.8-5.1-0.7l-3.1-3.5l-3.4,2.2l2.3,2.7c1.6,1.8,1.2,4.6-0.8,5.9
	c-1.7,1.1-3.8,0.8-5.1-0.7l-3.1-3.5l-1.9,1.2l-6.5-10.1l0.5-0.3l-2.3-2.6c-1.6-1.8-1.2-4.6,0.8-5.9c1.7-1.1,3.8-0.8,5.1,0.7
	L346,131.4z M382,127.5c0.6,0.7,1.7,0.9,2.5,0.4c0.5-0.3,0.8-0.8,0.9-1.4c0.1-0.6-0.1-1.1-0.5-1.6l-13.3-15.3
	c-0.6-0.7-1.7-0.9-2.5-0.4c-0.5,0.3-0.8,0.8-0.9,1.4c-0.1,0.6,0.1,1.1,0.5,1.6L382,127.5z M371.9,134.1c0.6,0.7,1.7,0.9,2.5,0.4
	c1-0.6,1.2-2,0.4-2.9l-13.3-15.3c-0.6-0.7-1.7-0.9-2.5-0.4c-1,0.7-1.2,2-0.4,2.9L371.9,134.1z M361.9,140.6c0.6,0.7,1.7,0.9,2.5,0.4
	c1-0.6,1.2-2,0.4-2.9l-13.3-15.3c-0.6-0.7-1.7-0.9-2.5-0.4c-1,0.6-1.2,2-0.4,2.9L361.9,140.6z M341.4,129.3
	c-0.6-0.7-1.7-0.9-2.5-0.4c-1,0.6-1.2,2-0.4,2.9l13.3,15.3c0.6,0.7,1.7,0.9,2.5,0.4c1-0.6,1.2-2,0.4-2.9L341.4,129.3z M349.8,154
	l-16.3-25.2c-0.3-0.5-0.9-0.6-1.4-0.3l-3.4,2.2c-0.5,0.3-0.6,0.9-0.3,1.4l16.3,25.2c0.3,0.5,0.9,0.6,1.4,0.3l3.4-2.2
	C350,155.1,350.1,154.4,349.8,154z M330.7,141.3c-0.5,0.3-0.6,0.9-0.3,1.4l2.7,4.2l2.7,4.2c0.3,0.5,0.9,0.6,1.4,0.3l2.2-1.4
	l-6.5-10.1L330.7,141.3z M333.2,146.9c1.5,2.3,0.8,5.4-1.5,6.9c-2.3,1.5-5.4,0.8-6.9-1.5c-1.5-2.3-0.8-5.4,1.5-6.9
	C328.6,143.9,331.7,144.6,333.2,146.9z M327.6,147.5c-1.2,0.7-1.5,2.3-0.7,3.4c0.7,1.2,2.3,1.5,3.4,0.7c1.2-0.7,1.5-2.3,0.7-3.4
	C330.3,147.1,328.8,146.8,327.6,147.5z"/>
<path fill="#231F20" d="M492.5,207.1l-22.2,4.5c-1.8,0.4-3.5-0.7-4.1-2.4c-5.9-18.4-10.1-39-11.7-58c-0.1-0.9,0.5-1.7,1.4-1.9
	l7.4-1.5c0.9-0.2,1.8,0.3,2,1.2l7.4,23.7c1.7,5.5,6,9.9,11.5,11.8c4.9,1.6,8.6,5.8,9.6,10.9c0,0,1.4,7.1,1.4,8
	C495.5,205.1,494.2,206.7,492.5,207.1z M507.7,214.8l-36.7,7.5c-4.4,0.9-8.7-1.6-10.2-5.8c-8.2-23.8-13.2-50.1-14.4-73.1
	c-0.1-1.8,1.1-3.3,2.8-3.7c4.9-1,13.2-2.7,17.9-3.7c2.3-0.5,4.8,0,6.7,1.4c12.4,8.5,22.5,19.7,29.6,32.6
	c7.5,13.7,9.9,25.4,11.1,34.9C515.3,209.6,512.2,213.9,507.7,214.8z M471.9,148.2c0.4,1.2,5.9,17.9,7,21.3
	c2.7,8.1,14.7,7.1,13.4-3.4c-0.5-4.1-7.6-15-15.8-20.5C473.8,143.7,471,145.4,471.9,148.2z M497.1,203.2c-0.1-1-1.5-8.2-1.5-8.2
	c-1.2-5.7-5.3-10.3-10.8-12.2c-5-1.7-8.8-5.6-10.4-10.6l-7.4-23.7c-0.5-1.7-2.3-2.8-4.1-2.4c-2.3,0.5-4.9,1-7.4,1.5c0,0,0,0,0,0
	c-1.8,0.4-3,2-2.8,3.8c1.7,19.2,5.8,39.9,11.8,58.4c0.8,2.6,3.5,4.1,6.1,3.6l22.2-4.5C495.5,208.3,497.3,205.9,497.1,203.2z
	 M461.7,126.6c-0.1-0.6-0.7-0.9-1.3-0.8l-11.8,2.4c-0.6,0.1-0.9,0.7-0.8,1.3l1.9,9.4l13.9-2.8L461.7,126.6z M434.8,143.8
	c-3.4,4.1-9.5,4.6-13.6,1.2c-4.1-3.4-4.6-9.5-1.2-13.6c8.7-10.3,24.9-5.9,24.9-5.9C434.9,132.1,439.7,138,434.8,143.8z M423.8,144.9
	c-3.2-5.8-2.5-10.4,0.9-15.4C418.5,132.8,418.1,141.6,423.8,144.9z"/>
<path fill="#231F20" d="M341.8,285c-0.1,16.4-8,30.2-18.2,30.4c-6.2,0.1-11-4.3-14.2-10.3c3-3.4,6-10.5,6-20
	c0-6.6-1.7-15.1-6.1-20.1c3.6-6.4,8.7-10.4,14.2-10.3C335.8,254.8,341.9,272.5,341.8,285z M351.2,285c0,16.6-5.3,33.5-18.8,45.2
	c-2.2,1.7-3,2.2-4.6,3.2c1.6-1,2.4-1.8,3.8-3.4c-1.4,0.9-2.9,1.6-4.4,2.2c-0.1,0.1-0.2,0.2-0.3,0.3c-4,4.5-9.8,5.3-15.8,5.5
	c-18.8,0-34.1-23.7-34.1-53c0-29.3,15.3-53,34.1-53c8.5,0.1,9.8,1.8,11.4,4.7c1.6,0.2,3.2,0.6,4.7,1.1c-0.8-1.6-1.5-2.2-2.5-2.8
	c4,1.8,7.6,4.3,10.4,7.1c0.4,0.4,0.4,0.5,0.7,1.1c1.3,1.2,2.6,2.6,3.8,4c-0.1-0.1-0.2-0.3-0.3-0.5
	C347.7,257.8,350.8,270.9,351.2,285z M302.7,235.1c2.4,1.2,3.9,2.8,5.7,5c1.4-0.9,2.9-1.6,4.4-2.2c-1.9-2.8-3.3-3.9-5.2-4.7
	C305.9,233.6,304.3,234.2,302.7,235.1z M290,247.1c2.8,1.4,4.8,2.9,7.1,4.9c1-1.7,2.1-3.3,3.3-4.8c-2.7-2.7-4.5-3.9-6.6-5.1
	C292.5,243.6,291.2,245.3,290,247.1z M281.8,266.3c3.1,1.4,5.5,2.6,8.4,4.1c0.5-2.3,1-4.5,1.7-6.7c-3.4-2.2-5.6-3.3-8-4.4
	C283.1,261.5,282.4,263.9,281.8,266.3z M279.8,290.1c3.6,1.1,6.2,1.8,9.4,2.4c-0.2-2.4-0.4-4.9-0.4-7.5c-3.8-1.2-6.2-2-9.1-3.1
	c0,1-0.1,2.1-0.1,3.1C279.6,286.7,279.7,288.4,279.8,290.1z M294.3,312.5c-0.9-2-1.6-4-2.3-6.1c-4,0.1-6.6-0.2-9.6-0.8
	c0.7,2.4,1.4,4.7,2.3,6.9C288.4,313,291.1,312.9,294.3,312.5z M294.8,329c3.9,0,6.5-0.8,9.4-2.1c-1.3-1.2-2.6-2.5-3.8-4
	c-3.8,1.3-6.5,1.5-9.5,1.4C292.1,326,293.4,327.5,294.8,329z M317.5,333.3c-1.6-0.2-3.2-0.6-4.7-1.1c-3.3,2.2-5.8,2.9-8.9,3.4
	c1.6,0.7,3.3,1.3,5,1.7C312.7,336.6,315,335.2,317.5,333.3z M344.9,285c-0.1-14.3-7.5-32.8-21.3-32.6c-11.8,0.1-20.5,15.4-20.4,32.6
	c0,13.9,6.7,32.5,20.4,32.6h0C334.9,317.8,345,303.5,344.9,285z M273.7,285c0-28.8,14.8-52.2,33.2-53c-5.2,0.2-9.2,1.3-12.5,3.1
	c-1.3,0.4-1.5,0.5-2.8,1.2c-4.7,2.7-7.9,5.5-11.3,9.6c1.8-2,3-2.7,5.2-3.7c-1.3,1.5-2.6,3.2-3.8,4.9c-3.4,1.4-4.8,3.5-5.5,4.5
	c-2.7,4.7-4,7.6-5.6,12.7c1-3,3.7-4.3,5.1-5.1c-0.8,2.3-1.5,4.6-2.1,7.1c-3.2,1.7-4.2,3.1-4.7,4.8c-1,5.6-1.4,9.1-1.3,14.4
	c0.1-1.8,2.8-3.1,3.9-3.7c-0.1,2.7-0.1,5.5,0.1,8.2c-2.9,1.4-3.2,1.9-3.6,2.7c1.1,8.1,2.7,13.2,2.8,13.5c0.6,0,0.9,0,3.2-0.8
	c0.7,2.4,1.4,4.7,2.3,6.9c-2.2,0.6-2.5,0.4-3.2,0c2.5,5.4,4,7.6,6.5,11c1,1,1.8,0.9,3,0.9c1.2,1.7,2.5,3.3,3.9,4.7
	c-1.3-0.1-1.8-0.2-2.6-0.9c3.6,3.4,6.6,5.2,10.6,7.2c0.3,0.1,0.7,0.2,1.1,0.3c3.3,1.5,6.7,2.2,10.2,2.4
	C287.9,336.3,273.7,313.3,273.7,285z"/>
<path fill="#231F20" d="M378.2,355.2h-4.7l4.7-7.5h4.7L378.2,355.2z M400.3,347.7h-4.7l-4.7,7.5h4.7L400.3,347.7z M374.2,347.7h-4.7
	l-4.7,7.5h4.7L374.2,347.7z M409.1,347.7h-4.7l-4.7,7.5h4.7L409.1,347.7z M416.9,349.2l-2.2-1.5h-1.6l-4.7,7.5h4.7L416.9,349.2z
	 M391.6,347.7h-4.7l-4.7,7.5h4.7L391.6,347.7z M365.4,347.7h-4.7l-4.7,7.5h4.7L365.4,347.7z M420.1,351.4l-0.4-0.3l-0.7,1.1
	L420.1,351.4z M456.5,351.4c0,3.6-2.9,6.6-6.6,6.6c-1.4,0-2.7-0.4-3.7-1.2c-0.7-0.5-1.6-0.9-2.4-1.2c1.4-2.6,1.4-5.8,0-8.5
	c0.8-0.3,1.7-0.7,2.4-1.2c1.1-0.7,2.3-1.2,3.7-1.2C453.6,344.8,456.5,347.8,456.5,351.4z M453.3,351.4c0-1.8-1.5-3.3-3.3-3.3
	c-1.8,0-3.3,1.5-3.3,3.3c0,1.8,1.5,3.3,3.3,3.3C451.8,354.7,453.3,353.3,453.3,351.4z M311.2,347.7c-1.8,0-3.2,1.4-3.2,3.2v1.1
	c0,0.9,0.3,1.7,0.9,2.3l4.1-6.6H311.2z M352,355.2l4.7-7.5H352l-4.4,7.1l0.7,0.5H352z M344.8,352.8l3-4.8l-4.9,3.5L344.8,352.8z
	 M317.1,347.7l-4.7,7.5h4.7l1.2-1.9c-0.4-1.9-0.2-3.9,0.6-5.7H317.1z M387.2,326.6l34.2,23.9l9.3-6.5c1.6-1.1,3.4-1.7,5.4-1.6
	l-38-26.6v6.5c0,2.4-1.9,4.3-4.3,4.3H387.2z M332.3,344l9.3,6.5l34.2-23.9h-6.5c-2.4,0-4.3-1.9-4.3-4.3v-6.5l-38,26.6
	C328.9,342.3,330.7,342.9,332.3,344z M412.1,395.1c0.5,0.6,0.1,1.6-0.7,1.6h-59.8c-0.8,0-1.2-1-0.7-1.6l13.3-14.8
	c1.4-1.6,3.5-2.5,5.6-2.5h23.4c2.1,0,4.2,0.9,5.6,2.5L412.1,395.1z M375.1,383.4c0-1.7-1.4-3-3-3c-1.7,0-3,1.4-3,3c0,1.7,1.4,3,3,3
	C373.7,386.5,375.1,385.1,375.1,383.4z M393.9,383.4c0-1.7-1.4-3-3-3c-1.7,0-3,1.4-3,3c0,1.7,1.4,3,3,3
	C392.5,386.5,393.9,385.1,393.9,383.4z M442,347.1c2.4,3.4,1.6,8.1-1.9,10.5l-36.7,25.7l-3.6-4c-1.7-1.9-4.2-3-6.7-3h-6l44.3-31
	C434.9,342.9,439.6,343.7,442,347.1z M439.2,351.4c0-1.7-1.4-3.1-3.1-3.1c-1.7,0-3.1,1.4-3.1,3.1s1.4,3.1,3.1,3.1
	C437.8,354.6,439.2,353.2,439.2,351.4z M359.4,383.3l-36.7-25.7c-3.4-2.4-4.2-7.1-1.8-10.5c2.4-3.4,7.1-4.2,10.5-1.8l44.3,31h-6
	c-2.6,0-5,1.1-6.7,3L359.4,383.3z M331.9,351.4c0-2.8-2.3-5-5-5c-2.8,0-5,2.3-5,5c0,2.8,2.3,5,5,5
	C329.6,356.5,331.9,354.2,331.9,351.4z M366.4,322.2v-15.1c0-1.6,1.3-2.8,2.8-2.8h24.5c1.6,0,2.8,1.3,2.8,2.8v15.1
	c0,1.6-1.3,2.8-2.8,2.8h-24.5C367.7,325.1,366.4,323.8,366.4,322.2z M386,317.5c0,1.7,1.4,3,3,3c1.7,0,3-1.4,3-3c0-1.7-1.4-3-3-3
	C387.3,314.5,386,315.9,386,317.5z M370.9,317.5c0,1.7,1.4,3,3,3c1.7,0,3-1.4,3-3c0-1.7-1.4-3-3-3
	C372.3,314.5,370.9,315.9,370.9,317.5z"/>
</svg>
